<svg width="109" height="108" viewBox="0 0 109 108" fill="none" xmlns="http://www.w3.org/2000/svg">
<path fill-rule="evenodd" clip-rule="evenodd" d="M10.0965 43.9509C9.07903 43.9754 8.09869 44.1563 7.17871 44.4702C9.79191 20.602 29.9788 2.00378 54.5003 2.00378C79.0219 2.00378 99.2088 20.6021 101.822 44.4704C100.902 44.1563 99.9214 43.9754 98.9037 43.9509C96.344 21.6837 77.4563 4.42033 54.5001 4.42033C31.544 4.42033 12.6563 21.6837 10.0965 43.9509ZM12.1107 43.948H50.4282C50.4292 43.921 50.4311 43.8936 50.4338 43.8659C50.4597 43.6001 50.5596 43.3695 50.6867 43.1788C50.7099 43.144 50.7353 43.1107 50.7627 43.0791C50.7708 43.0632 50.7921 43.0212 50.825 42.9401C50.868 42.8342 50.9064 42.7266 50.9525 42.5976C50.9773 42.5283 51.0043 42.4527 51.0353 42.368C51.1117 42.1598 51.215 41.8906 51.3475 41.6568C51.4444 41.4857 51.72 41.0239 52.27 40.8864C52.6107 40.8012 52.9712 40.901 53.2196 41.1494C53.3375 41.2673 53.4015 41.3891 53.4237 41.4322C53.4543 41.4917 53.4771 41.5473 53.4927 41.5882C53.5242 41.6707 53.5513 41.7585 53.5731 41.8338C53.6162 41.9828 53.6613 42.1632 53.7006 42.3203L53.7035 42.3317C53.7463 42.5032 53.7829 42.6489 53.8146 42.7585C53.8203 42.7781 53.8253 42.7947 53.8297 42.8086L53.8409 42.8295C54.2715 43.2085 54.6579 43.5842 55.0239 43.948H57.1C56.1696 42.9537 55.2453 41.9558 54.3256 40.9627C51.8969 38.3403 49.4996 35.7519 47.1024 33.3547C46.5504 32.8026 46.5504 32.4714 47.1024 31.9193L59.7999 19.2218C59.9103 19.1114 60.1311 18.8906 60.3519 18.7802H60.4624C60.8282 18.7802 60.9668 18.9317 61.1291 19.1093C61.1627 19.1461 61.1974 19.184 61.2352 19.2218L79.1221 37.1087C79.5638 37.5504 79.5638 37.992 79.1221 38.4337C77.4721 39.9968 75.8905 41.7648 74.2697 43.5766L73.9373 43.948H75.8271L75.9239 43.8392L76.1575 43.5762L76.1576 43.5761L76.1576 43.5761L76.1577 43.576L76.1578 43.5759C76.919 42.7185 77.6656 41.8775 78.4595 41.0836V40.9732C78.5699 40.8996 78.6681 40.8014 78.7621 40.7074C78.9502 40.5193 79.122 40.3475 79.3428 40.4211C79.7057 40.6026 79.6213 41.0076 79.5797 41.2076C79.5707 41.251 79.5636 41.2847 79.5636 41.3044C79.6595 42.0717 79.5055 43.3389 79.1739 43.948H96.8896C94.3407 22.791 76.3494 6.42033 54.5001 6.42033C32.6509 6.42033 14.6596 22.791 12.1107 43.948ZM108.498 53.7811C108.498 50.3037 106.671 47.2344 103.93 45.4851C101.779 20.0293 80.4786 0.00378418 54.5003 0.00378418C28.5222 0.00378418 7.22178 20.0291 5.07109 45.4849C2.32904 47.2342 0.502013 50.3036 0.502013 53.7811V53.8804L0.501953 53.8914L0.502013 53.9025V98.167C0.502013 103.577 4.92459 108 10.335 108H98.6652C104.076 108 108.498 103.577 108.498 98.167V53.7811ZM46.8816 29.159C48.5378 27.558 50.1664 25.9294 51.795 24.3008C53.4236 22.6722 55.0521 21.0437 56.7083 19.4427L57.15 19.001C57.1868 18.9274 57.2481 18.8661 57.3095 18.8047C57.4322 18.6821 57.5548 18.5594 57.4812 18.3386C57.4812 18.069 57.1887 18.0919 56.9607 18.1098C56.9086 18.1139 56.8598 18.1177 56.8187 18.1177C55.9354 18.1177 55.273 18.1177 54.6105 18.8906C51.9606 21.6509 49.2003 24.4112 46.4399 27.0612C45.5566 27.9445 45.5566 28.9382 45.7775 30.0423C46.2058 30.0423 46.4348 29.7764 46.6706 29.5025L46.6706 29.5024L46.6709 29.5021L46.6711 29.5019C46.7391 29.423 46.8076 29.3434 46.8816 29.2694V29.159ZM52.1813 45.9481L52.1725 45.948H10.335C6.32981 45.948 2.99836 48.9998 2.55266 52.8914H106.448C106.002 48.9998 102.67 45.948 98.6652 45.948H54.6191L54.6103 45.9481H52.1813ZM2.50201 98.167V54.8914H106.498V98.167C106.498 102.473 102.971 106 98.6652 106H10.335C6.02916 106 2.50201 102.473 2.50201 98.167ZM10.5557 49.475C10.5557 50.1375 10.114 50.5791 9.45154 50.5791C8.78906 50.5791 8.34741 50.1375 8.34741 49.475C8.34741 48.8125 8.78906 48.3709 9.45154 48.3709C10.114 48.3709 10.5557 48.8125 10.5557 49.475ZM13.5371 50.5791C14.1996 50.5791 14.6412 50.1375 14.6412 49.475C14.6412 48.8125 14.1996 48.3708 13.5371 48.3708C12.8746 48.3708 12.4329 48.8125 12.4329 49.475C12.4329 50.1375 12.8746 50.5791 13.5371 50.5791ZM18.8366 49.475C18.8366 50.1375 18.395 50.5791 17.7325 50.5791C17.07 50.5791 16.6284 50.1375 16.6284 49.475C16.6284 48.8125 17.07 48.3708 17.7325 48.3708C18.395 48.3708 18.8366 48.8125 18.8366 49.475ZM28.768 92.315C28.768 91.7627 29.2157 91.315 29.768 91.315H38.601C39.1533 91.315 39.601 91.7627 39.601 92.315V96.5044H44.1154V82.5987C44.1154 82.0464 44.5631 81.5987 45.1154 81.5987H53.9484C54.5007 81.5987 54.9484 82.0464 54.9484 82.5987V96.5044H59.5733V86.0214C59.5733 85.4692 60.021 85.0214 60.5733 85.0214H69.4063C69.9586 85.0214 70.4063 85.4692 70.4063 86.0214V96.5044H74.9207V72.9928C74.9207 72.4405 75.3684 71.9928 75.9207 71.9928H84.7537C85.306 71.9928 85.7537 72.4405 85.7537 72.9928V96.5044H89.8324C90.3847 96.5044 90.8324 96.9521 90.8324 97.5044C90.8324 98.0567 90.3847 98.5044 89.8324 98.5044H84.7649L84.7537 98.5044L84.7425 98.5044H75.9318L75.9207 98.5044L75.9095 98.5044H69.4063H60.5733H53.9602L53.9484 98.5044L53.9366 98.5044H45.1272L45.1154 98.5044L45.1035 98.5044L38.601 98.5044H29.768L19.1683 98.5044C18.616 98.5044 18.1683 98.0567 18.1683 97.5044V65.3743C18.1683 64.822 18.616 64.3743 19.1683 64.3743C19.7206 64.3743 20.1683 64.822 20.1683 65.3743V96.5044H28.768V92.315ZM37.601 93.315V96.5044H30.768V93.315H37.601ZM52.9484 96.5044H46.1154V83.5987H52.9484V96.5044ZM68.4063 96.5044H61.5733V87.0214H68.4063V96.5044ZM83.7537 96.5044H76.9207V73.9928H83.7537V96.5044ZM34.1844 80.4946C32.4176 80.4946 30.9762 81.936 30.9762 83.7028C30.9762 85.4697 32.4176 86.9111 34.1844 86.9111C35.9513 86.9111 37.3927 85.4697 37.3927 83.7028C37.3927 83.4586 37.3651 83.2206 37.313 82.9918L47.4047 76.9368C47.9716 77.4403 48.7171 77.7468 49.5318 77.7468C50.7218 77.7468 51.7642 77.0929 52.318 76.1261L61.8801 78.751C62.2335 80.1382 63.4952 81.1695 64.9897 81.1695C66.7565 81.1695 68.198 79.7281 68.198 77.9613C68.198 77.535 68.1141 77.1276 67.9619 76.7549L78.6588 68.2169C79.1476 68.5186 79.7227 68.6929 80.3371 68.6929C82.1039 68.6929 83.5453 67.2515 83.5453 65.4847C83.5453 63.7179 82.1039 62.2764 80.3371 62.2764C78.5703 62.2764 77.1288 63.7179 77.1288 65.4847C77.1288 65.9109 77.2127 66.3182 77.3648 66.6908L66.6677 75.2289C66.179 74.9273 65.604 74.753 64.9897 74.753C63.663 74.753 62.5197 75.5658 62.0325 76.7188L52.718 74.1619C52.5305 72.5714 51.1712 71.3303 49.5318 71.3303C47.765 71.3303 46.3235 72.7717 46.3235 74.5385C46.3235 74.7689 46.348 74.9937 46.3946 75.2105L36.2816 81.2783C35.7185 80.7904 34.9848 80.4946 34.1844 80.4946ZM65.8144 77.0819C65.5977 76.8784 65.3071 76.753 64.9897 76.753C64.3275 76.753 63.7815 77.299 63.7815 77.9613C63.7815 78.6235 64.3275 79.1695 64.9897 79.1695C65.652 79.1695 66.198 78.6235 66.198 77.9613C66.198 77.7057 66.1167 77.4675 65.9788 77.2713C65.9379 77.2346 65.8995 77.1941 65.8641 77.1498C65.8465 77.1276 65.8299 77.105 65.8144 77.0819ZM79.3487 66.1757C79.2104 65.9793 79.1288 65.7407 79.1288 65.4847C79.1288 64.8224 79.6748 64.2764 80.3371 64.2764C80.9993 64.2764 81.5453 64.8224 81.5453 65.4847C81.5453 66.1469 80.9993 66.6929 80.3371 66.6929C80.0192 66.6929 79.728 66.5671 79.5112 66.363C79.496 66.3403 79.4796 66.318 79.4622 66.2962C79.4272 66.2523 79.3892 66.2121 79.3487 66.1757ZM49.5318 75.7468C49.9659 75.7468 50.35 75.5122 50.5631 75.1641C50.5088 74.9884 50.5023 74.7956 50.5546 74.605C50.5878 74.4842 50.6418 74.3747 50.7116 74.2793C50.5914 73.7396 50.1052 73.3303 49.5318 73.3303C48.8695 73.3303 48.3235 73.8763 48.3235 74.5385C48.3235 75.2008 48.8695 75.7468 49.5318 75.7468ZM32.9762 83.7028C32.9762 83.0406 33.5222 82.4946 34.1844 82.4946C34.8467 82.4946 35.3927 83.0406 35.3927 83.7028C35.3927 84.3651 34.8467 84.9111 34.1844 84.9111C33.5222 84.9111 32.9762 84.3651 32.9762 83.7028ZM60.2415 21.7613L65.2101 26.7299C66.4198 27.9396 67.6294 29.1614 68.8431 30.3873L68.845 30.3892L68.8458 30.39C71.287 32.8558 73.7446 35.3381 76.2514 37.7712C74.7056 39.317 73.1598 40.9732 71.614 42.8502H58.8062C58.3645 42.4085 57.9229 41.9669 57.5916 41.5252C54.8313 38.5441 52.071 35.5629 49.3107 32.6922L56.7083 25.2945L60.2415 21.7613Z" fill="url(#paint0_linear_467_336)"/>
<defs>
<linearGradient id="paint0_linear_467_336" x1="16" y1="22" x2="108.498" y2="108.788" gradientUnits="userSpaceOnUse">
<stop stop-color="#2E62FF"/>
<stop offset="1" stop-color="#4B24DC"/>
</linearGradient>
</defs>
</svg>
