<svg width="118" height="110" viewBox="0 0 118 110" fill="none" xmlns="http://www.w3.org/2000/svg">
<path fill-rule="evenodd" clip-rule="evenodd" d="M59.2456 68.85C59.7979 68.85 60.2456 69.2977 60.2456 69.85V74.7591C60.2456 75.3113 59.7979 75.7591 59.2456 75.7591C58.6933 75.7591 58.2456 75.3113 58.2456 74.7591V69.85C58.2456 69.2977 58.6933 68.85 59.2456 68.85Z" fill="url(#paint0_linear_467_393)"/>
<path fill-rule="evenodd" clip-rule="evenodd" d="M2.80859 68.6227V104.091C2.80859 106.239 4.56997 108 6.71768 108H111.772C113.92 108 115.681 106.239 115.681 104.091V68.6227H117.681V104.091C117.681 107.343 115.025 110 111.772 110H6.71768C3.4654 110 0.808594 107.343 0.808594 104.091V68.6227H2.80859Z" fill="url(#paint1_linear_467_393)"/>
<path fill-rule="evenodd" clip-rule="evenodd" d="M2.31826 5.85363L7.71099 51.5692L5.72476 51.8035L0.317871 5.96787V5.90909C0.317871 2.65681 2.97468 0 6.22696 0H111.282C114.534 0 117.191 2.65681 117.191 5.90909V5.95724L112.768 51.7824L110.777 51.5903L115.19 5.86365C115.166 3.73659 113.414 2 111.282 2H6.22696C4.09776 2 2.34827 3.73114 2.31826 5.85363Z" fill="url(#paint2_linear_467_393)"/>
<path fill-rule="evenodd" clip-rule="evenodd" d="M0.747559 8.36366C0.747559 7.81137 1.19527 7.36366 1.74756 7.36366L115.761 7.36365C116.313 7.36365 116.761 7.81136 116.761 8.36365C116.761 8.91593 116.313 9.36365 115.761 9.36365L1.74756 9.36366C1.19527 9.36366 0.747559 8.91594 0.747559 8.36366Z" fill="url(#paint3_linear_467_393)"/>
<path fill-rule="evenodd" clip-rule="evenodd" d="M0.808594 61.3817C0.808594 60.8294 1.25631 60.3817 1.80859 60.3817H116.681C117.234 60.3817 117.681 60.8294 117.681 61.3817V69.7272C117.681 70.2794 117.234 70.7272 116.681 70.7272H66.3813V76.2317C66.3813 79.9749 63.3563 82.9999 59.6131 82.9999H58.8768C55.1336 82.9999 52.1086 79.9749 52.1086 76.2317V70.7272H1.80859C1.25631 70.7272 0.808594 70.2794 0.808594 69.7272V61.3817ZM2.80859 62.3817V68.7272H53.1086C53.6609 68.7272 54.1086 69.1749 54.1086 69.7272V76.2317C54.1086 78.8703 56.2382 80.9999 58.8768 80.9999H59.6131C62.2518 80.9999 64.3813 78.8703 64.3813 76.2317V69.7272C64.3813 69.1749 64.829 68.7272 65.3813 68.7272H115.681V62.3817H2.80859Z" fill="url(#paint4_linear_467_393)"/>
<path fill-rule="evenodd" clip-rule="evenodd" d="M71.9907 57.4544C71.9907 51.6249 76.7339 46.8817 82.5634 46.8817C88.393 46.8817 93.1362 51.6249 93.1362 57.4544C93.1362 58.9784 92.7225 60.4607 92.2056 61.7531L90.3486 61.0103C90.8135 59.8482 91.1362 58.6305 91.1362 57.4544C91.1362 52.7295 87.2884 48.8817 82.5634 48.8817C77.8385 48.8817 73.9907 52.7295 73.9907 57.4544C73.9907 58.771 74.014 59.5647 74.0526 60.0409C74.0553 60.0742 74.0581 60.1053 74.0608 60.1343C74.1729 60.1931 74.2808 60.2713 74.3805 60.3714C74.571 60.5627 74.6921 60.7948 74.7783 61.0103L72.9322 61.7487C72.9408 61.7589 72.9511 61.7704 72.9634 61.7827C73.0712 61.891 73.2243 61.964 73.3799 61.9841C73.4208 61.9894 73.4529 61.9896 73.4626 61.9895L73.4518 61.9899L73.4253 61.9908C73.4042 61.9914 73.3681 61.9921 73.3254 61.9906C73.1148 61.9828 72.775 61.9162 72.4962 61.6095C72.2835 61.3755 72.2012 61.098 72.1597 60.9218C72.1127 60.722 72.0819 60.482 72.0592 60.2028C72.0135 59.6397 71.9907 58.7765 71.9907 57.4544ZM73.4637 61.9895C73.4666 61.9894 73.466 61.9895 73.4626 61.9895L73.4637 61.9895ZM74.1133 60.4879C74.1132 60.4881 74.1117 60.484 74.1093 60.4747C74.1122 60.483 74.1134 60.4876 74.1133 60.4879Z" fill="url(#paint5_linear_467_393)"/>
<path fill-rule="evenodd" clip-rule="evenodd" d="M5.82348 50.9937C5.99287 50.6549 6.33913 50.4409 6.7179 50.4409H21.3224C21.8747 50.4409 22.3224 50.8886 22.3224 51.4409C22.3224 51.9932 21.8747 52.4409 21.3224 52.4409H7.33594L2.70324 61.7063C2.45625 62.2003 1.85558 62.4005 1.3616 62.1535C0.867621 61.9065 0.667396 61.3059 0.914386 60.8119L5.82348 50.9937Z" fill="url(#paint6_linear_467_393)"/>
<path fill-rule="evenodd" clip-rule="evenodd" d="M95.0635 51.4409C95.0635 50.8886 95.5112 50.4409 96.0635 50.4409H111.773C112.151 50.4409 112.498 50.6549 112.667 50.9937L117.576 60.8119C117.823 61.3059 117.623 61.9065 117.129 62.1535C116.635 62.4005 116.034 62.2003 115.787 61.7063L111.155 52.4409H96.0635C95.5112 52.4409 95.0635 51.9932 95.0635 51.4409Z" fill="url(#paint7_linear_467_393)"/>
<path fill-rule="evenodd" clip-rule="evenodd" d="M49.2861 39.2909C49.2861 30.6386 56.3611 23.5636 65.0134 23.5636C73.6657 23.5636 80.7407 30.6386 80.7407 39.2909C80.7407 40.7026 80.6124 42.0334 80.2076 43.3828L78.2919 42.8081C78.6235 41.7029 78.7407 40.5791 78.7407 39.2909C78.7407 31.7432 72.5611 25.5636 65.0134 25.5636C57.4657 25.5636 51.2861 31.7432 51.2861 39.2909C51.2861 43.2479 51.9183 45.4121 52.9119 46.8958C53.8816 48.3438 55.2549 49.2581 57.1848 50.5429C57.2779 50.6049 57.3724 50.6677 57.4681 50.7315L56.3587 52.3956C56.228 52.3085 56.0978 52.2221 55.9683 52.1361C54.145 50.9255 52.4496 49.7999 51.2501 48.0086C49.9426 46.056 49.2861 43.4339 49.2861 39.2909Z" fill="url(#paint8_linear_467_393)"/>
<path fill-rule="evenodd" clip-rule="evenodd" d="M65.9949 15.7091C66.5472 15.7091 66.9949 16.1568 66.9949 16.7091V19.1637C66.9949 19.7159 66.5472 20.1637 65.9949 20.1637C65.4426 20.1637 64.9949 19.7159 64.9949 19.1637V16.7091C64.9949 16.1568 65.4426 15.7091 65.9949 15.7091Z" fill="url(#paint9_linear_467_393)"/>
<path fill-rule="evenodd" clip-rule="evenodd" d="M75.2931 19.5611C75.6836 19.9516 75.6836 20.5848 75.2931 20.9753L73.5749 22.6935C73.1843 23.084 72.5512 23.084 72.1607 22.6935C71.7701 22.303 71.7701 21.6698 72.1607 21.2793L73.8788 19.5611C74.2694 19.1706 74.9025 19.1706 75.2931 19.5611Z" fill="url(#paint10_linear_467_393)"/>
<path fill-rule="evenodd" clip-rule="evenodd" d="M56.8197 19.5611C57.2103 19.1706 57.8434 19.1706 58.234 19.5611L59.9521 21.2793C60.3427 21.6698 60.3427 22.303 59.9521 22.6935C59.5616 23.084 58.9285 23.084 58.5379 22.6935L56.8197 20.9753C56.4292 20.5848 56.4292 19.9516 56.8197 19.5611Z" fill="url(#paint11_linear_467_393)"/>
<path fill-rule="evenodd" clip-rule="evenodd" d="M20.0023 32.2019C20.3928 31.8114 21.026 31.8114 21.4165 32.2019L23.1347 33.9201C23.5252 34.3106 23.5252 34.9438 23.1347 35.3343C22.7442 35.7248 22.111 35.7248 21.7205 35.3343L20.0023 33.6161C19.6118 33.2256 19.6118 32.5925 20.0023 32.2019Z" fill="url(#paint12_linear_467_393)"/>
<path fill-rule="evenodd" clip-rule="evenodd" d="M29.0021 28.1059C29.5536 28.0769 30.0242 28.5004 30.0532 29.052L30.176 31.3838C30.205 31.9353 29.7814 32.4059 29.2299 32.435C28.6784 32.464 28.2078 32.0404 28.1787 31.4889L28.056 29.1571C28.027 28.6056 28.4505 28.1349 29.0021 28.1059Z" fill="url(#paint13_linear_467_393)"/>
<path fill-rule="evenodd" clip-rule="evenodd" d="M20.8488 41.45C20.8764 42.0016 20.4516 42.4711 19.9 42.4987L17.4455 42.6214C16.8939 42.649 16.4244 42.2242 16.3968 41.6726C16.3692 41.121 16.794 40.6515 17.3456 40.6239L19.8001 40.5012C20.3517 40.4736 20.8212 40.8984 20.8488 41.45Z" fill="url(#paint14_linear_467_393)"/>
<path fill-rule="evenodd" clip-rule="evenodd" d="M95.6915 50.5125C96.2043 50.3074 96.7863 50.5568 96.9914 51.0695C97.7615 52.9949 98.2902 55.0864 98.2902 57.3319C98.2902 58.7347 98.1637 60.1912 97.7571 61.5465C97.5984 62.0755 97.0409 62.3756 96.5119 62.2169C95.983 62.0583 95.6828 61.5008 95.8415 60.9718C96.1713 59.8725 96.2902 58.629 96.2902 57.3319C96.2902 55.4046 95.837 53.5688 95.1344 51.8123C94.9293 51.2995 95.1787 50.7176 95.6915 50.5125Z" fill="url(#paint15_linear_467_393)"/>
<path fill-rule="evenodd" clip-rule="evenodd" d="M69.5572 50.6352C70.0699 50.8403 70.3194 51.4222 70.1142 51.935C69.8835 52.512 69.6493 53.2126 69.403 53.9515C69.0747 55.0521 68.9585 56.1718 68.9585 57.4545C68.9585 58.696 69.1848 59.96 69.43 61.1857C69.5383 61.7273 69.1871 62.2541 68.6455 62.3624C68.104 62.4707 67.5771 62.1195 67.4688 61.5779C67.2231 60.3491 66.9585 58.9131 66.9585 57.4545C66.9585 56.0428 67.0868 54.712 67.4916 53.3627C67.4945 53.353 67.4975 53.3434 67.5007 53.3338L67.5069 53.3153C67.7479 52.5924 68.0009 51.8332 68.2573 51.1922C68.4624 50.6795 69.0444 50.43 69.5572 50.6352Z" fill="url(#paint16_linear_467_393)"/>
<path fill-rule="evenodd" clip-rule="evenodd" d="M51.3911 50.4409H57.0366C57.2381 50.4409 57.4349 50.5018 57.6013 50.6156C59.7605 52.093 62.3849 52.8955 65.1366 52.8955C66.1664 52.8955 67.1982 52.7811 68.2333 52.5511L68.6671 54.5035C67.4931 54.7644 66.3158 54.8955 65.1366 54.8955C62.1057 54.8955 59.1851 54.0419 56.7332 52.4409H51.3911V50.4409Z" fill="url(#paint17_linear_467_393)"/>
<path fill-rule="evenodd" clip-rule="evenodd" d="M65.1362 30.7183C60.4016 30.7183 56.5635 34.5564 56.5635 39.291C56.5635 44.0256 60.4016 47.8637 65.1362 47.8637C69.8708 47.8637 73.7089 44.0256 73.7089 39.291C73.7089 34.5564 69.8708 30.7183 65.1362 30.7183ZM54.5635 39.291C54.5635 33.4518 59.297 28.7183 65.1362 28.7183C70.9754 28.7183 75.7089 33.4518 75.7089 39.291C75.7089 45.1301 70.9754 49.8637 65.1362 49.8637C59.297 49.8637 54.5635 45.1301 54.5635 39.291Z" fill="url(#paint18_linear_467_393)"/>
<path fill-rule="evenodd" clip-rule="evenodd" d="M36.9092 40.5364C32.1746 40.5364 28.3364 44.3745 28.3364 49.1091C28.3364 53.8437 32.1746 57.6818 36.9092 57.6818C41.6437 57.6818 45.4819 53.8437 45.4819 49.1091C45.4819 44.3745 41.6437 40.5364 36.9092 40.5364ZM26.3364 49.1091C26.3364 43.2699 31.07 38.5364 36.9092 38.5364C42.7483 38.5364 47.4819 43.2699 47.4819 49.1091C47.4819 54.9483 42.7483 59.6818 36.9092 59.6818C31.07 59.6818 26.3364 54.9483 26.3364 49.1091Z" fill="url(#paint19_linear_467_393)"/>
<path fill-rule="evenodd" clip-rule="evenodd" d="M96.3612 37.3468C96.8249 37.6469 96.9576 38.266 96.6576 38.7297L95.3076 40.816C95.0075 41.2797 94.3884 41.4124 93.9247 41.1124C93.4611 40.8123 93.3284 40.1932 93.6284 39.7295L94.9784 37.6432C95.2784 37.1795 95.8976 37.0468 96.3612 37.3468Z" fill="url(#paint20_linear_467_393)"/>
<path fill-rule="evenodd" clip-rule="evenodd" d="M86.371 35.6208C86.9068 35.4868 87.4497 35.8126 87.5837 36.3484L88.1973 38.8029C88.3312 39.3387 88.0055 39.8817 87.4697 40.0156C86.9339 40.1496 86.391 39.8238 86.257 39.288L85.6434 36.8335C85.5094 36.2977 85.8352 35.7547 86.371 35.6208Z" fill="url(#paint21_linear_467_393)"/>
<path fill-rule="evenodd" clip-rule="evenodd" d="M102.062 45.4183C102.203 45.9524 101.884 46.4993 101.35 46.6398L99.0179 47.2535C98.4838 47.394 97.9369 47.075 97.7964 46.5409C97.6558 46.0068 97.9748 45.4599 98.5089 45.3193L100.841 44.7057C101.375 44.5651 101.922 44.8842 102.062 45.4183Z" fill="url(#paint22_linear_467_393)"/>
<path fill-rule="evenodd" clip-rule="evenodd" d="M1.80859 69.85H0.808594V104.091C0.808594 107.343 3.4654 110 6.71768 110L12.6268 110V68.85H1.80859V69.85ZM10.6268 70.85H2.80859V104.091C2.80859 106.239 4.56997 108 6.71768 108L10.6268 108V70.85Z" fill="url(#paint23_linear_467_393)"/>
<path fill-rule="evenodd" clip-rule="evenodd" d="M111.772 108C113.92 108 115.681 106.239 115.681 104.091L115.682 70.85H107.863V108L111.772 108ZM117.681 104.091C117.681 107.343 115.025 110 111.772 110L105.863 110V68.85H117.682L117.681 104.091Z" fill="url(#paint24_linear_467_393)"/>
<path fill-rule="evenodd" clip-rule="evenodd" d="M40.8357 81.1817H11.5039V79.3817H40.8357V81.1817Z" fill="url(#paint25_linear_467_393)"/>
<path fill-rule="evenodd" clip-rule="evenodd" d="M89.0676 90.3863H11.504V88.5863H89.0676V90.3863Z" fill="url(#paint26_linear_467_393)"/>
<path fill-rule="evenodd" clip-rule="evenodd" d="M82.1949 99.4682H11.504V97.6682H82.1949V99.4682Z" fill="url(#paint27_linear_467_393)"/>
<path fill-rule="evenodd" clip-rule="evenodd" d="M106.864 81.1817H77.5319V79.3817H106.864V81.1817Z" fill="url(#paint28_linear_467_393)"/>
<path fill-rule="evenodd" clip-rule="evenodd" d="M106.864 90.3863H77.5317V88.5863H106.864V90.3863Z" fill="url(#paint29_linear_467_393)"/>
<path fill-rule="evenodd" clip-rule="evenodd" d="M106.864 99.4682H77.5317V97.6682H106.864V99.4682Z" fill="url(#paint30_linear_467_393)"/>
<path d="M6.71751 79.3001C7.39531 79.3001 7.94478 78.7507 7.94478 78.0729C7.94478 77.3951 7.39531 76.8456 6.71751 76.8456C6.0397 76.8456 5.49023 77.3951 5.49023 78.0729C5.49023 78.7507 6.0397 79.3001 6.71751 79.3001Z" fill="url(#paint31_linear_467_393)"/>
<path d="M6.71751 86.9092C7.39531 86.9092 7.94478 86.3597 7.94478 85.6819C7.94478 85.0041 7.39531 84.4546 6.71751 84.4546C6.0397 84.4546 5.49023 85.0041 5.49023 85.6819C5.49023 86.3597 6.0397 86.9092 6.71751 86.9092Z" fill="url(#paint32_linear_467_393)"/>
<path d="M6.71751 94.3956C7.39531 94.3956 7.94478 93.8462 7.94478 93.1684C7.94478 92.4906 7.39531 91.9411 6.71751 91.9411C6.0397 91.9411 5.49023 92.4906 5.49023 93.1684C5.49023 93.8462 6.0397 94.3956 6.71751 94.3956Z" fill="url(#paint33_linear_467_393)"/>
<path d="M6.71751 102.005C7.39531 102.005 7.94478 101.455 7.94478 100.777C7.94478 100.1 7.39531 99.5501 6.71751 99.5501C6.0397 99.5501 5.49023 100.1 5.49023 100.777C5.49023 101.455 6.0397 102.005 6.71751 102.005Z" fill="url(#paint34_linear_467_393)"/>
<path d="M111.772 79.3C112.45 79.3 112.999 78.7505 112.999 78.0727C112.999 77.3949 112.45 76.8455 111.772 76.8455C111.094 76.8455 110.545 77.3949 110.545 78.0727C110.545 78.7505 111.094 79.3 111.772 79.3Z" fill="url(#paint35_linear_467_393)"/>
<path d="M111.772 86.9091C112.45 86.9091 113 86.3596 113 85.6818C113 85.004 112.45 84.4545 111.772 84.4545C111.095 84.4545 110.545 85.004 110.545 85.6818C110.545 86.3596 111.095 86.9091 111.772 86.9091Z" fill="url(#paint36_linear_467_393)"/>
<path d="M111.772 94.3956C112.45 94.3956 113 93.8461 113 93.1683C113 92.4905 112.45 91.941 111.772 91.941C111.095 91.941 110.545 92.4905 110.545 93.1683C110.545 93.8461 111.095 94.3956 111.772 94.3956Z" fill="url(#paint37_linear_467_393)"/>
<path d="M111.772 102.005C112.45 102.005 113 101.455 113 100.777C113 100.1 112.45 99.5501 111.772 99.5501C111.095 99.5501 110.545 100.1 110.545 100.777C110.545 101.455 111.095 102.005 111.772 102.005Z" fill="url(#paint38_linear_467_393)"/>
<path fill-rule="evenodd" clip-rule="evenodd" d="M23.1816 49.109C23.1816 41.5276 29.3275 35.3817 36.9089 35.3817C44.4903 35.3817 50.6362 41.5276 50.6362 49.109C50.6362 54.4768 47.5552 59.125 43.0652 61.3817H46.7448C50.3367 58.4993 52.6362 54.0727 52.6362 49.109C52.6362 40.4231 45.5948 33.3817 36.9089 33.3817C28.223 33.3817 21.1816 40.4231 21.1816 49.109C21.1816 54.0727 23.4812 58.4993 27.073 61.3817H30.7526C26.2626 59.125 23.1816 54.4768 23.1816 49.109Z" fill="url(#paint39_linear_467_393)"/>
<path fill-rule="evenodd" clip-rule="evenodd" d="M82.5637 44.0342C74.9823 44.0342 68.8364 50.1801 68.8364 57.7615C68.8364 59.0146 69.0043 60.2284 69.3189 61.3818H67.2551C66.9813 60.2195 66.8364 59.0074 66.8364 57.7615C66.8364 49.0755 73.8778 42.0342 82.5637 42.0342C91.2496 42.0342 98.291 49.0755 98.291 57.7615C98.291 59.0074 98.1461 60.2195 97.8723 61.3818H95.8085C96.1231 60.2284 96.291 59.0146 96.291 57.7615C96.291 50.1801 90.1451 44.0342 82.5637 44.0342Z" fill="url(#paint40_linear_467_393)"/>
<defs>
<linearGradient id="paint0_linear_467_393" x1="11.8179" y1="11" x2="117.682" y2="110.802" gradientUnits="userSpaceOnUse">
<stop stop-color="#2E62FF"/>
<stop offset="1" stop-color="#4B24DC"/>
</linearGradient>
<linearGradient id="paint1_linear_467_393" x1="11.8179" y1="11" x2="117.682" y2="110.802" gradientUnits="userSpaceOnUse">
<stop stop-color="#2E62FF"/>
<stop offset="1" stop-color="#4B24DC"/>
</linearGradient>
<linearGradient id="paint2_linear_467_393" x1="11.8179" y1="11" x2="117.682" y2="110.802" gradientUnits="userSpaceOnUse">
<stop stop-color="#2E62FF"/>
<stop offset="1" stop-color="#4B24DC"/>
</linearGradient>
<linearGradient id="paint3_linear_467_393" x1="11.8179" y1="11" x2="117.682" y2="110.802" gradientUnits="userSpaceOnUse">
<stop stop-color="#2E62FF"/>
<stop offset="1" stop-color="#4B24DC"/>
</linearGradient>
<linearGradient id="paint4_linear_467_393" x1="11.8179" y1="11" x2="117.682" y2="110.802" gradientUnits="userSpaceOnUse">
<stop stop-color="#2E62FF"/>
<stop offset="1" stop-color="#4B24DC"/>
</linearGradient>
<linearGradient id="paint5_linear_467_393" x1="11.8179" y1="11" x2="117.682" y2="110.802" gradientUnits="userSpaceOnUse">
<stop stop-color="#2E62FF"/>
<stop offset="1" stop-color="#4B24DC"/>
</linearGradient>
<linearGradient id="paint6_linear_467_393" x1="11.8179" y1="11" x2="117.682" y2="110.802" gradientUnits="userSpaceOnUse">
<stop stop-color="#2E62FF"/>
<stop offset="1" stop-color="#4B24DC"/>
</linearGradient>
<linearGradient id="paint7_linear_467_393" x1="11.8179" y1="11" x2="117.682" y2="110.802" gradientUnits="userSpaceOnUse">
<stop stop-color="#2E62FF"/>
<stop offset="1" stop-color="#4B24DC"/>
</linearGradient>
<linearGradient id="paint8_linear_467_393" x1="11.8179" y1="11" x2="117.682" y2="110.802" gradientUnits="userSpaceOnUse">
<stop stop-color="#2E62FF"/>
<stop offset="1" stop-color="#4B24DC"/>
</linearGradient>
<linearGradient id="paint9_linear_467_393" x1="11.8179" y1="11" x2="117.682" y2="110.802" gradientUnits="userSpaceOnUse">
<stop stop-color="#2E62FF"/>
<stop offset="1" stop-color="#4B24DC"/>
</linearGradient>
<linearGradient id="paint10_linear_467_393" x1="11.8179" y1="11" x2="117.682" y2="110.802" gradientUnits="userSpaceOnUse">
<stop stop-color="#2E62FF"/>
<stop offset="1" stop-color="#4B24DC"/>
</linearGradient>
<linearGradient id="paint11_linear_467_393" x1="11.8179" y1="11" x2="117.682" y2="110.802" gradientUnits="userSpaceOnUse">
<stop stop-color="#2E62FF"/>
<stop offset="1" stop-color="#4B24DC"/>
</linearGradient>
<linearGradient id="paint12_linear_467_393" x1="11.8179" y1="11" x2="117.682" y2="110.802" gradientUnits="userSpaceOnUse">
<stop stop-color="#2E62FF"/>
<stop offset="1" stop-color="#4B24DC"/>
</linearGradient>
<linearGradient id="paint13_linear_467_393" x1="11.8179" y1="11" x2="117.682" y2="110.802" gradientUnits="userSpaceOnUse">
<stop stop-color="#2E62FF"/>
<stop offset="1" stop-color="#4B24DC"/>
</linearGradient>
<linearGradient id="paint14_linear_467_393" x1="11.8179" y1="11" x2="117.682" y2="110.802" gradientUnits="userSpaceOnUse">
<stop stop-color="#2E62FF"/>
<stop offset="1" stop-color="#4B24DC"/>
</linearGradient>
<linearGradient id="paint15_linear_467_393" x1="11.8179" y1="11" x2="117.682" y2="110.802" gradientUnits="userSpaceOnUse">
<stop stop-color="#2E62FF"/>
<stop offset="1" stop-color="#4B24DC"/>
</linearGradient>
<linearGradient id="paint16_linear_467_393" x1="11.8179" y1="11" x2="117.682" y2="110.802" gradientUnits="userSpaceOnUse">
<stop stop-color="#2E62FF"/>
<stop offset="1" stop-color="#4B24DC"/>
</linearGradient>
<linearGradient id="paint17_linear_467_393" x1="11.8179" y1="11" x2="117.682" y2="110.802" gradientUnits="userSpaceOnUse">
<stop stop-color="#2E62FF"/>
<stop offset="1" stop-color="#4B24DC"/>
</linearGradient>
<linearGradient id="paint18_linear_467_393" x1="11.8179" y1="11" x2="117.682" y2="110.802" gradientUnits="userSpaceOnUse">
<stop stop-color="#2E62FF"/>
<stop offset="1" stop-color="#4B24DC"/>
</linearGradient>
<linearGradient id="paint19_linear_467_393" x1="11.8179" y1="11" x2="117.682" y2="110.802" gradientUnits="userSpaceOnUse">
<stop stop-color="#2E62FF"/>
<stop offset="1" stop-color="#4B24DC"/>
</linearGradient>
<linearGradient id="paint20_linear_467_393" x1="11.8179" y1="11" x2="117.682" y2="110.802" gradientUnits="userSpaceOnUse">
<stop stop-color="#2E62FF"/>
<stop offset="1" stop-color="#4B24DC"/>
</linearGradient>
<linearGradient id="paint21_linear_467_393" x1="11.8179" y1="11" x2="117.682" y2="110.802" gradientUnits="userSpaceOnUse">
<stop stop-color="#2E62FF"/>
<stop offset="1" stop-color="#4B24DC"/>
</linearGradient>
<linearGradient id="paint22_linear_467_393" x1="11.8179" y1="11" x2="117.682" y2="110.802" gradientUnits="userSpaceOnUse">
<stop stop-color="#2E62FF"/>
<stop offset="1" stop-color="#4B24DC"/>
</linearGradient>
<linearGradient id="paint23_linear_467_393" x1="11.8179" y1="11" x2="117.682" y2="110.802" gradientUnits="userSpaceOnUse">
<stop stop-color="#2E62FF"/>
<stop offset="1" stop-color="#4B24DC"/>
</linearGradient>
<linearGradient id="paint24_linear_467_393" x1="11.8179" y1="11" x2="117.682" y2="110.802" gradientUnits="userSpaceOnUse">
<stop stop-color="#2E62FF"/>
<stop offset="1" stop-color="#4B24DC"/>
</linearGradient>
<linearGradient id="paint25_linear_467_393" x1="11.8179" y1="11" x2="117.682" y2="110.802" gradientUnits="userSpaceOnUse">
<stop stop-color="#2E62FF"/>
<stop offset="1" stop-color="#4B24DC"/>
</linearGradient>
<linearGradient id="paint26_linear_467_393" x1="11.8179" y1="11" x2="117.682" y2="110.802" gradientUnits="userSpaceOnUse">
<stop stop-color="#2E62FF"/>
<stop offset="1" stop-color="#4B24DC"/>
</linearGradient>
<linearGradient id="paint27_linear_467_393" x1="11.8179" y1="11" x2="117.682" y2="110.802" gradientUnits="userSpaceOnUse">
<stop stop-color="#2E62FF"/>
<stop offset="1" stop-color="#4B24DC"/>
</linearGradient>
<linearGradient id="paint28_linear_467_393" x1="11.8179" y1="11" x2="117.682" y2="110.802" gradientUnits="userSpaceOnUse">
<stop stop-color="#2E62FF"/>
<stop offset="1" stop-color="#4B24DC"/>
</linearGradient>
<linearGradient id="paint29_linear_467_393" x1="11.8179" y1="11" x2="117.682" y2="110.802" gradientUnits="userSpaceOnUse">
<stop stop-color="#2E62FF"/>
<stop offset="1" stop-color="#4B24DC"/>
</linearGradient>
<linearGradient id="paint30_linear_467_393" x1="11.8179" y1="11" x2="117.682" y2="110.802" gradientUnits="userSpaceOnUse">
<stop stop-color="#2E62FF"/>
<stop offset="1" stop-color="#4B24DC"/>
</linearGradient>
<linearGradient id="paint31_linear_467_393" x1="11.8179" y1="11" x2="117.682" y2="110.802" gradientUnits="userSpaceOnUse">
<stop stop-color="#2E62FF"/>
<stop offset="1" stop-color="#4B24DC"/>
</linearGradient>
<linearGradient id="paint32_linear_467_393" x1="11.8179" y1="11" x2="117.682" y2="110.802" gradientUnits="userSpaceOnUse">
<stop stop-color="#2E62FF"/>
<stop offset="1" stop-color="#4B24DC"/>
</linearGradient>
<linearGradient id="paint33_linear_467_393" x1="11.8179" y1="11" x2="117.682" y2="110.802" gradientUnits="userSpaceOnUse">
<stop stop-color="#2E62FF"/>
<stop offset="1" stop-color="#4B24DC"/>
</linearGradient>
<linearGradient id="paint34_linear_467_393" x1="11.8179" y1="11" x2="117.682" y2="110.802" gradientUnits="userSpaceOnUse">
<stop stop-color="#2E62FF"/>
<stop offset="1" stop-color="#4B24DC"/>
</linearGradient>
<linearGradient id="paint35_linear_467_393" x1="11.8179" y1="11" x2="117.682" y2="110.802" gradientUnits="userSpaceOnUse">
<stop stop-color="#2E62FF"/>
<stop offset="1" stop-color="#4B24DC"/>
</linearGradient>
<linearGradient id="paint36_linear_467_393" x1="11.8179" y1="11" x2="117.682" y2="110.802" gradientUnits="userSpaceOnUse">
<stop stop-color="#2E62FF"/>
<stop offset="1" stop-color="#4B24DC"/>
</linearGradient>
<linearGradient id="paint37_linear_467_393" x1="11.8179" y1="11" x2="117.682" y2="110.802" gradientUnits="userSpaceOnUse">
<stop stop-color="#2E62FF"/>
<stop offset="1" stop-color="#4B24DC"/>
</linearGradient>
<linearGradient id="paint38_linear_467_393" x1="11.8179" y1="11" x2="117.682" y2="110.802" gradientUnits="userSpaceOnUse">
<stop stop-color="#2E62FF"/>
<stop offset="1" stop-color="#4B24DC"/>
</linearGradient>
<linearGradient id="paint39_linear_467_393" x1="11.8179" y1="11" x2="117.682" y2="110.802" gradientUnits="userSpaceOnUse">
<stop stop-color="#2E62FF"/>
<stop offset="1" stop-color="#4B24DC"/>
</linearGradient>
<linearGradient id="paint40_linear_467_393" x1="11.8179" y1="11" x2="117.682" y2="110.802" gradientUnits="userSpaceOnUse">
<stop stop-color="#2E62FF"/>
<stop offset="1" stop-color="#4B24DC"/>
</linearGradient>
</defs>
</svg>
