<svg width="108" height="108" viewBox="0 0 108 108" fill="none" xmlns="http://www.w3.org/2000/svg">
<path fill-rule="evenodd" clip-rule="evenodd" d="M0.0556641 65.2945C0.0556641 64.6738 0.55882 64.1707 1.17949 64.1707H22.3075C22.9282 64.1707 23.4313 64.6738 23.4313 65.2945V74.847C23.4313 75.4677 22.9282 75.9709 22.3075 75.9709H1.17949C0.55882 75.9709 0.0556641 75.4677 0.0556641 74.847V65.2945ZM2.30332 66.4183V73.7232H21.1837V66.4183H2.30332Z" fill="url(#paint0_linear_467_368)"/>
<path fill-rule="evenodd" clip-rule="evenodd" d="M21.1835 65.2945C21.1835 64.6738 21.6866 64.1707 22.3073 64.1707H43.4353C44.056 64.1707 44.5591 64.6738 44.5591 65.2945V74.847C44.5591 75.4677 44.056 75.9709 43.4353 75.9709H22.3073C21.6866 75.9709 21.1835 75.4677 21.1835 74.847V65.2945ZM23.4311 66.4183V73.7232H42.3115V66.4183H23.4311Z" fill="url(#paint1_linear_467_368)"/>
<path fill-rule="evenodd" clip-rule="evenodd" d="M42.3118 65.2945C42.3118 64.6738 42.8149 64.1707 43.4356 64.1707H64.5636C65.1843 64.1707 65.6874 64.6738 65.6874 65.2945V74.847C65.6874 75.4677 65.1843 75.9709 64.5636 75.9709H43.4356C42.8149 75.9709 42.3118 75.4677 42.3118 74.847V65.2945ZM44.5594 66.4183V73.7232H63.4398V66.4183H44.5594Z" fill="url(#paint2_linear_467_368)"/>
<path fill-rule="evenodd" clip-rule="evenodd" d="M63.4396 65.2945C63.4396 64.6738 63.9427 64.1707 64.5634 64.1707H85.6914C86.3121 64.1707 86.8152 64.6738 86.8152 65.2945V74.847C86.8152 75.4677 86.3121 75.9709 85.6914 75.9709H64.5634C63.9427 75.9709 63.4396 75.4677 63.4396 74.847V65.2945ZM65.6872 66.4183V73.7232H84.5676V66.4183H65.6872Z" fill="url(#paint3_linear_467_368)"/>
<path fill-rule="evenodd" clip-rule="evenodd" d="M84.5679 65.2945C84.5679 64.6738 85.071 64.1707 85.6917 64.1707H106.82C107.44 64.1707 107.944 64.6738 107.944 65.2945V74.847C107.944 75.4677 107.44 75.9709 106.82 75.9709H85.6917C85.071 75.9709 84.5679 75.4677 84.5679 74.847V65.2945ZM86.8155 66.4183V73.7232H105.696V66.4183H86.8155Z" fill="url(#paint4_linear_467_368)"/>
<path fill-rule="evenodd" clip-rule="evenodd" d="M0.0556641 74.847C0.0556641 74.2264 0.55882 73.7232 1.17949 73.7232H22.3075C22.9282 73.7232 23.4313 74.2264 23.4313 74.847V89.794C23.4313 90.4146 22.9282 90.9178 22.3075 90.9178H1.17949C0.55882 90.9178 0.0556641 90.4146 0.0556641 89.794V74.847ZM2.30332 75.9709V88.6701H21.1837V75.9709H2.30332Z" fill="url(#paint5_linear_467_368)"/>
<path fill-rule="evenodd" clip-rule="evenodd" d="M21.1835 74.847C21.1835 74.2264 21.6866 73.7232 22.3073 73.7232H43.4353C44.056 73.7232 44.5591 74.2264 44.5591 74.847V89.794C44.5591 90.4146 44.056 90.9178 43.4353 90.9178H22.3073C21.6866 90.9178 21.1835 90.4146 21.1835 89.794V74.847ZM23.4311 75.9709V88.6701H42.3115V75.9709H23.4311Z" fill="url(#paint6_linear_467_368)"/>
<path fill-rule="evenodd" clip-rule="evenodd" d="M42.3118 74.847C42.3118 74.2264 42.8149 73.7232 43.4356 73.7232H64.5636C65.1843 73.7232 65.6874 74.2264 65.6874 74.847V89.794C65.6874 90.4146 65.1843 90.9178 64.5636 90.9178H43.4356C42.8149 90.9178 42.3118 90.4146 42.3118 89.794V74.847ZM44.5594 75.9709V88.6701H63.4398V75.9709H44.5594Z" fill="url(#paint7_linear_467_368)"/>
<path fill-rule="evenodd" clip-rule="evenodd" d="M63.4396 74.847C63.4396 74.2264 63.9427 73.7232 64.5634 73.7232H85.6914C86.3121 73.7232 86.8152 74.2264 86.8152 74.847V89.794C86.8152 90.4146 86.3121 90.9178 85.6914 90.9178H64.5634C63.9427 90.9178 63.4396 90.4146 63.4396 89.794V74.847ZM65.6872 75.9709V88.6701H84.5676V75.9709H65.6872Z" fill="url(#paint8_linear_467_368)"/>
<path fill-rule="evenodd" clip-rule="evenodd" d="M84.5679 74.847C84.5679 74.2264 85.071 73.7232 85.6917 73.7232H106.82C107.44 73.7232 107.944 74.2264 107.944 74.847V89.794C107.944 90.4146 107.44 90.9178 106.82 90.9178H85.6917C85.071 90.9178 84.5679 90.4146 84.5679 89.794V74.847ZM86.8155 75.9709V88.6701H105.696V75.9709H86.8155Z" fill="url(#paint9_linear_467_368)"/>
<path fill-rule="evenodd" clip-rule="evenodd" d="M0.0556641 89.794C0.0556641 89.1733 0.55882 88.6702 1.17949 88.6702H22.3075C22.9282 88.6702 23.4313 89.1733 23.4313 89.794V106.876C23.4313 107.497 22.9282 108 22.3075 108H1.17949C0.55882 108 0.0556641 107.497 0.0556641 106.876V89.794ZM2.30332 90.9178V105.752H21.1837V90.9178H2.30332Z" fill="url(#paint10_linear_467_368)"/>
<path fill-rule="evenodd" clip-rule="evenodd" d="M21.1835 89.794C21.1835 89.1733 21.6866 88.6702 22.3073 88.6702H43.4353C44.056 88.6702 44.5591 89.1733 44.5591 89.794V106.876C44.5591 107.497 44.056 108 43.4353 108H22.3073C21.6866 108 21.1835 107.497 21.1835 106.876V89.794ZM23.4311 90.9178V105.752H42.3115V90.9178H23.4311Z" fill="url(#paint11_linear_467_368)"/>
<path fill-rule="evenodd" clip-rule="evenodd" d="M42.3118 89.794C42.3118 89.1733 42.8149 88.6702 43.4356 88.6702H64.5636C65.1843 88.6702 65.6874 89.1733 65.6874 89.794V106.876C65.6874 107.497 65.1843 108 64.5636 108H43.4356C42.8149 108 42.3118 107.497 42.3118 106.876V89.794ZM44.5594 90.9178V105.752H63.4398V90.9178H44.5594Z" fill="url(#paint12_linear_467_368)"/>
<path fill-rule="evenodd" clip-rule="evenodd" d="M63.4396 89.794C63.4396 89.1733 63.9427 88.6702 64.5634 88.6702H85.6914C86.3121 88.6702 86.8152 89.1733 86.8152 89.794V106.876C86.8152 107.497 86.3121 108 85.6914 108H64.5634C63.9427 108 63.4396 107.497 63.4396 106.876V89.794ZM65.6872 90.9178V105.752H84.5676V90.9178H65.6872Z" fill="url(#paint13_linear_467_368)"/>
<path fill-rule="evenodd" clip-rule="evenodd" d="M84.5679 89.794C84.5679 89.1733 85.071 88.6702 85.6917 88.6702H106.82C107.44 88.6702 107.944 89.1733 107.944 89.794V106.876C107.944 107.497 107.44 108 106.82 108H85.6917C85.071 108 84.5679 107.497 84.5679 106.876V89.794ZM86.8155 90.9178V105.752H105.696V90.9178H86.8155Z" fill="url(#paint14_linear_467_368)"/>
<path fill-rule="evenodd" clip-rule="evenodd" d="M54.6671 22.276C55.019 22.2019 55.3851 22.3007 55.652 22.5417L76.5552 41.4221C76.6406 41.4992 76.7137 41.589 76.7718 41.6883L90.0999 64.4572L107.357 73.8603C107.902 74.1572 108.103 74.8398 107.806 75.3848C107.51 75.9299 106.827 76.1309 106.282 75.834L88.7502 66.2814C88.5707 66.1836 88.4213 66.0387 88.318 65.8623L74.9198 42.9737L55.2925 25.2458L46.2594 45.4127C46.1332 45.6944 45.8967 45.9118 45.6053 46.0139L28.2764 52.0845L17.579 65.9801C17.4959 66.0881 17.3939 66.18 17.2779 66.2515L1.76903 75.804C1.24056 76.1295 0.548278 75.965 0.22277 75.4365C-0.102737 74.908 0.0617975 74.2158 0.590268 73.8902L15.9237 64.4458L26.6991 50.4488C26.8321 50.2761 27.0124 50.1458 27.2181 50.0737L44.4058 44.0525L53.8731 22.9163C54.0201 22.5881 54.3152 22.3501 54.6671 22.276Z" fill="url(#paint15_linear_467_368)"/>
<path fill-rule="evenodd" clip-rule="evenodd" d="M89.9543 29.4364C90.3932 28.9975 91.1047 28.9975 91.5436 29.4364C95.0381 32.9309 99.9457 32.9309 103.44 29.4364C103.879 28.9975 104.591 28.9975 105.03 29.4364C105.468 29.8753 105.468 30.5869 105.03 31.0257C101.535 34.5203 101.535 39.4278 105.03 42.9224C105.468 43.3612 105.468 44.0728 105.03 44.5117C104.591 44.9506 103.879 44.9506 103.44 44.5117C99.9457 41.0172 95.0381 41.0172 91.5436 44.5117C91.1047 44.9506 90.3932 44.9506 89.9543 44.5117C89.5154 44.0728 89.5154 43.3612 89.9543 42.9224C93.4488 39.4278 93.4488 34.5203 89.9543 31.0257C89.5154 30.5869 89.5154 29.8753 89.9543 29.4364ZM94.2909 33.773C95.0001 35.8644 95.0001 38.0837 94.2909 40.1751C96.3823 39.4658 98.6016 39.4658 100.693 40.1751C99.9837 38.0837 99.9837 35.8644 100.693 33.773C98.6016 34.4823 96.3823 34.4823 94.2909 33.773Z" fill="url(#paint16_linear_467_368)"/>
<path fill-rule="evenodd" clip-rule="evenodd" d="M28.8941 15.9013C29.36 16.3113 29.4053 17.0214 28.9953 17.4874C26.5071 20.3149 23.3471 23.7003 19.8558 27.3042C16.5223 30.7453 13.1906 33.6752 10.4661 36.0711C10.3133 36.2054 10.1625 36.338 10.0137 36.469C9.54779 36.879 8.83767 36.8337 8.42763 36.3677C8.0176 35.9018 8.06292 35.1916 8.52887 34.7816C8.67449 34.6535 8.8218 34.5239 8.97071 34.3929C11.7015 31.9914 14.9724 29.1148 18.2414 25.7403C21.7179 22.1517 24.8514 18.7941 27.308 16.0025C27.718 15.5366 28.4281 15.4912 28.8941 15.9013Z" fill="url(#paint17_linear_467_368)"/>
<path fill-rule="evenodd" clip-rule="evenodd" d="M6.82781 32.0296C7.16425 32.0383 7.47906 32.1974 7.68568 32.463C8.41509 33.4008 9.13555 34.1213 10.0734 34.8507C10.3411 35.0589 10.5004 35.3769 10.507 35.716C10.5136 36.0551 10.3667 36.379 10.1073 36.5974C7.96807 38.3989 6.1339 39.8626 4.75005 40.8094C4.06606 41.2774 3.44021 41.6555 2.91458 41.8777C2.65651 41.9867 2.35334 42.0886 2.04009 42.1142C1.72929 42.1397 1.2316 42.0994 0.834303 41.7021C0.433315 41.3011 0.397612 40.7977 0.422045 40.4935C0.447143 40.181 0.546926 39.8761 0.655556 39.6137C0.876841 39.0791 1.25413 38.4425 1.72388 37.7487C2.67397 36.3455 4.14058 34.5083 5.94856 32.4178C6.16872 32.1633 6.49137 32.0208 6.82781 32.0296ZM3.75151 38.7665C4.78676 38.0377 6.09808 37.0069 7.63694 35.7324C7.34329 35.4615 7.06439 35.1823 6.79366 34.8883C5.51292 36.4053 4.47821 37.7221 3.75151 38.7665Z" fill="url(#paint18_linear_467_368)"/>
<path fill-rule="evenodd" clip-rule="evenodd" d="M32.9101 7.78381C33.2209 7.75835 33.7186 7.79863 34.1159 8.19592C34.5169 8.59691 34.5526 9.10027 34.5282 9.40453C34.5031 9.71707 34.4033 10.0219 34.2947 10.2844C34.0734 10.8189 33.6961 11.4555 33.2263 12.1493C32.2762 13.5525 30.8096 15.3897 29.0017 17.4802L28.1516 16.745L27.2645 17.435C26.5351 16.4972 25.8147 15.7767 24.8769 15.0473C24.6092 14.8391 24.4498 14.5211 24.4432 14.182C24.4366 13.843 24.5835 13.519 24.8429 13.3006C26.9821 11.4991 28.8163 10.0354 30.2002 9.08858C30.8842 8.62058 31.51 8.2425 32.0356 8.02037C32.2937 7.91131 32.5969 7.80947 32.9101 7.78381ZM28.1566 15.0097C29.4373 13.4928 30.472 12.1759 31.1987 11.1315C30.1635 11.8603 28.8521 12.8912 27.3133 14.1656C27.6069 14.4365 27.8858 14.7157 28.1566 15.0097Z" fill="url(#paint19_linear_467_368)"/>
<path fill-rule="evenodd" clip-rule="evenodd" d="M54.5922 22.2945C55.1894 22.1252 55.8106 22.4721 55.9799 23.0693L63.8467 50.8279C63.9332 51.133 63.8867 51.4605 63.7187 51.7295C63.5507 51.9986 63.2769 52.1841 62.9647 52.2403L51.0004 54.396L44.1815 66.0856C43.8688 66.6217 43.1807 66.8028 42.6445 66.4901C42.1084 66.1773 41.9273 65.4892 42.2401 64.953L49.3202 52.8157C49.4859 52.5315 49.7679 52.3343 50.0916 52.2759L61.3462 50.2481L53.8174 23.6821C53.6481 23.085 53.995 22.4637 54.5922 22.2945Z" fill="url(#paint20_linear_467_368)"/>
<path fill-rule="evenodd" clip-rule="evenodd" d="M71.7558 0C72.3765 0 72.8797 0.503156 72.8797 1.12383C72.8797 3.49477 73.7074 5.44759 75.0651 6.80523C76.4227 8.16287 78.3755 8.99064 80.7465 8.99064C81.3671 8.99064 81.8703 9.49379 81.8703 10.1145C81.8703 10.7351 81.3671 11.2383 80.7465 11.2383C78.3755 11.2383 76.4227 12.0661 75.0651 13.4237C73.7074 14.7813 72.8797 16.7342 72.8797 19.1051C72.8797 19.7258 72.3765 20.2289 71.7558 20.2289C71.1351 20.2289 70.632 19.7258 70.632 19.1051C70.632 16.7342 69.8042 14.7813 68.4466 13.4237C67.0889 12.0661 65.1361 11.2383 62.7652 11.2383C62.1445 11.2383 61.6414 10.7351 61.6414 10.1145C61.6414 9.49379 62.1445 8.99064 62.7652 8.99064C65.1361 8.99064 67.0889 8.16287 68.4466 6.80523C69.8042 5.44759 70.632 3.49478 70.632 1.12383C70.632 0.503156 71.1351 0 71.7558 0ZM71.7558 6.02096C71.306 6.90433 70.7284 7.70211 70.0359 8.39457C69.3435 9.08702 68.5457 9.66467 67.6623 10.1145C68.5457 10.5643 69.3435 11.1419 70.0359 11.8344C70.7284 12.5268 71.306 13.3246 71.7558 14.208C72.2056 13.3246 72.7833 12.5268 73.4757 11.8344C74.1682 11.1419 74.966 10.5643 75.8493 10.1145C74.966 9.66467 74.1682 9.08702 73.4757 8.39457C72.7833 7.70211 72.2056 6.90433 71.7558 6.02096Z" fill="url(#paint21_linear_467_368)"/>
<path fill-rule="evenodd" clip-rule="evenodd" d="M17.475 36.1873C23.6817 36.1873 28.7133 31.1557 28.7133 24.949C28.7133 18.7422 23.6817 13.7107 17.475 13.7107C11.2682 13.7107 6.23667 18.7422 6.23667 24.949C6.23667 31.1557 11.2682 36.1873 17.475 36.1873ZM17.475 38.4349C24.9231 38.4349 30.9609 32.3971 30.9609 24.949C30.9609 17.5009 24.9231 11.463 17.475 11.463C10.0269 11.463 3.98901 17.5009 3.98901 24.949C3.98901 32.3971 10.0269 38.4349 17.475 38.4349Z" fill="url(#paint22_linear_467_368)"/>
<defs>
<linearGradient id="paint0_linear_467_368" x1="4.13422" y1="67.1176" x2="12.3738" y2="82.1271" gradientUnits="userSpaceOnUse">
<stop stop-color="#2E62FF"/>
<stop offset="1" stop-color="#4B24DC"/>
</linearGradient>
<linearGradient id="paint1_linear_467_368" x1="25.262" y1="67.1176" x2="33.5016" y2="82.1271" gradientUnits="userSpaceOnUse">
<stop stop-color="#2E62FF"/>
<stop offset="1" stop-color="#4B24DC"/>
</linearGradient>
<linearGradient id="paint2_linear_467_368" x1="46.3903" y1="67.1176" x2="54.6299" y2="82.1271" gradientUnits="userSpaceOnUse">
<stop stop-color="#2E62FF"/>
<stop offset="1" stop-color="#4B24DC"/>
</linearGradient>
<linearGradient id="paint3_linear_467_368" x1="67.5181" y1="67.1176" x2="75.7577" y2="82.1271" gradientUnits="userSpaceOnUse">
<stop stop-color="#2E62FF"/>
<stop offset="1" stop-color="#4B24DC"/>
</linearGradient>
<linearGradient id="paint4_linear_467_368" x1="88.6464" y1="67.1176" x2="96.886" y2="82.1271" gradientUnits="userSpaceOnUse">
<stop stop-color="#2E62FF"/>
<stop offset="1" stop-color="#4B24DC"/>
</linearGradient>
<linearGradient id="paint5_linear_467_368" x1="4.13422" y1="78.0174" x2="18.0177" y2="95.3736" gradientUnits="userSpaceOnUse">
<stop stop-color="#2E62FF"/>
<stop offset="1" stop-color="#4B24DC"/>
</linearGradient>
<linearGradient id="paint6_linear_467_368" x1="25.262" y1="78.0174" x2="39.1455" y2="95.3736" gradientUnits="userSpaceOnUse">
<stop stop-color="#2E62FF"/>
<stop offset="1" stop-color="#4B24DC"/>
</linearGradient>
<linearGradient id="paint7_linear_467_368" x1="46.3903" y1="78.0174" x2="60.2738" y2="95.3736" gradientUnits="userSpaceOnUse">
<stop stop-color="#2E62FF"/>
<stop offset="1" stop-color="#4B24DC"/>
</linearGradient>
<linearGradient id="paint8_linear_467_368" x1="67.5181" y1="78.0174" x2="81.4016" y2="95.3736" gradientUnits="userSpaceOnUse">
<stop stop-color="#2E62FF"/>
<stop offset="1" stop-color="#4B24DC"/>
</linearGradient>
<linearGradient id="paint9_linear_467_368" x1="88.6464" y1="78.0174" x2="102.53" y2="95.3736" gradientUnits="userSpaceOnUse">
<stop stop-color="#2E62FF"/>
<stop offset="1" stop-color="#4B24DC"/>
</linearGradient>
<linearGradient id="paint10_linear_467_368" x1="4.13422" y1="93.4976" x2="20.0426" y2="111.188" gradientUnits="userSpaceOnUse">
<stop stop-color="#2E62FF"/>
<stop offset="1" stop-color="#4B24DC"/>
</linearGradient>
<linearGradient id="paint11_linear_467_368" x1="25.262" y1="93.4976" x2="41.1704" y2="111.188" gradientUnits="userSpaceOnUse">
<stop stop-color="#2E62FF"/>
<stop offset="1" stop-color="#4B24DC"/>
</linearGradient>
<linearGradient id="paint12_linear_467_368" x1="46.3903" y1="93.4976" x2="62.2987" y2="111.188" gradientUnits="userSpaceOnUse">
<stop stop-color="#2E62FF"/>
<stop offset="1" stop-color="#4B24DC"/>
</linearGradient>
<linearGradient id="paint13_linear_467_368" x1="67.5181" y1="93.4976" x2="83.4265" y2="111.188" gradientUnits="userSpaceOnUse">
<stop stop-color="#2E62FF"/>
<stop offset="1" stop-color="#4B24DC"/>
</linearGradient>
<linearGradient id="paint14_linear_467_368" x1="88.6464" y1="93.4976" x2="104.555" y2="111.188" gradientUnits="userSpaceOnUse">
<stop stop-color="#2E62FF"/>
<stop offset="1" stop-color="#4B24DC"/>
</linearGradient>
<linearGradient id="paint15_linear_467_368" x1="18.8798" y1="35.6677" x2="56.1114" y2="104.428" gradientUnits="userSpaceOnUse">
<stop stop-color="#2E62FF"/>
<stop offset="1" stop-color="#4B24DC"/>
</linearGradient>
<linearGradient id="paint16_linear_467_368" x1="92.3703" y1="33.0366" x2="105.346" y2="44.969" gradientUnits="userSpaceOnUse">
<stop stop-color="#2E62FF"/>
<stop offset="1" stop-color="#4B24DC"/>
</linearGradient>
<linearGradient id="paint17_linear_467_368" x1="11.8338" y1="20.8976" x2="29.2589" y2="36.9212" gradientUnits="userSpaceOnUse">
<stop stop-color="#2E62FF"/>
<stop offset="1" stop-color="#4B24DC"/>
</linearGradient>
<linearGradient id="paint18_linear_467_368" x1="2.17682" y1="34.5493" x2="10.4993" y2="42.2025" gradientUnits="userSpaceOnUse">
<stop stop-color="#2E62FF"/>
<stop offset="1" stop-color="#4B24DC"/>
</linearGradient>
<linearGradient id="paint19_linear_467_368" x1="26.2037" y1="10.2008" x2="34.2258" y2="17.8733" gradientUnits="userSpaceOnUse">
<stop stop-color="#2E62FF"/>
<stop offset="1" stop-color="#4B24DC"/>
</linearGradient>
<linearGradient id="paint20_linear_467_368" x1="45.8909" y1="33.338" x2="73.455" y2="45.787" gradientUnits="userSpaceOnUse">
<stop stop-color="#2E62FF"/>
<stop offset="1" stop-color="#4B24DC"/>
</linearGradient>
<linearGradient id="paint21_linear_467_368" x1="65.1709" y1="5.05197" x2="81.8544" y2="20.3937" gradientUnits="userSpaceOnUse">
<stop stop-color="#2E62FF"/>
<stop offset="1" stop-color="#4B24DC"/>
</linearGradient>
<linearGradient id="paint22_linear_467_368" x1="8.69503" y1="18.199" x2="30.9398" y2="38.6546" gradientUnits="userSpaceOnUse">
<stop stop-color="#2E62FF"/>
<stop offset="1" stop-color="#4B24DC"/>
</linearGradient>
</defs>
</svg>
