<svg width="124" height="108" viewBox="0 0 124 108" fill="none" xmlns="http://www.w3.org/2000/svg">
<path d="M109.258 69.2014L112.82 66.1484C113.074 65.894 113.201 65.5124 113.201 65.1307V52.1555C113.201 51.3922 112.693 50.8834 111.929 50.8834C111.166 50.8834 110.657 51.3922 110.657 52.1555V64.4947L106.968 67.6749C103.915 65.894 100.226 65.0035 96.5371 65.0035C92.8481 65.0035 92.3392 65.3852 90.3039 65.894V17.1731L110.657 3.18021V29.0035C110.657 29.7668 111.166 30.2756 111.929 30.2756C112.693 30.2756 113.201 29.7668 113.201 29.0035V0.763251C113.201 0.763251 113.201 0.508834 113.201 0.381625C113.201 0.381625 113.201 0.254417 113.074 0.127208C113.074 0.127208 113.074 0.127208 112.947 0C112.947 0 112.947 0 112.82 0C112.82 0 112.693 0 112.565 0H43.2368C42.9823 0 42.7279 1.89555e-08 42.4735 0.254417L19.576 15.3922C19.576 15.3922 19.576 15.5194 19.4488 15.6466C19.4488 15.7739 19.4488 15.9011 19.4488 16.1555V35.2368C18.5583 34.2191 17.5406 33.583 16.2686 33.583H12.7067C11.1802 33.583 9.90814 34.4735 9.01768 36C8.12722 34.4735 6.85514 33.583 5.32863 33.583H1.51238C0.749129 33.583 0.240295 34.0919 0.240295 34.8551C0.240295 35.6184 0.749129 36.1272 1.51238 36.1272H5.07422C5.96468 36.1272 6.85514 37.2721 7.23676 38.9258H5.45584C4.69259 38.9258 4.18376 39.4346 4.18376 40.1979C4.18376 40.9611 4.69259 41.47 5.45584 41.47H7.10955C6.72793 43.1237 5.83747 44.1413 5.07422 44.1413H1.51238C0.749129 44.1413 0.240295 44.6502 0.240295 45.4134C0.240295 46.1767 0.749129 46.6855 1.51238 46.6855H5.07422C6.60072 46.6855 7.8728 45.7951 8.76326 44.2686C9.65372 45.7951 10.9258 46.6855 12.4523 46.6855H16.0141C17.2862 46.6855 18.3039 46.0495 19.1944 45.0318V84.8481C19.1944 85.6113 19.7032 86.1201 20.4664 86.1201H74.9117C74.9117 86.1201 74.9117 86.2474 74.9117 86.3746C74.9117 98.3322 84.5795 108 96.5371 108C108.495 108 118.163 98.3322 118.163 86.3746C118.163 74.417 114.601 72.8905 109.258 68.947V69.2014ZM15.8869 44.3958H12.3251C11.4346 44.3958 10.5442 43.3781 10.2898 41.7244H11.5618C12.3251 41.7244 12.8339 41.2155 12.8339 40.4523C12.8339 39.689 12.3251 39.1802 11.5618 39.1802H10.2898C10.6714 37.5265 11.5619 36.5088 12.3251 36.5088H15.8869C16.9046 36.5088 18.1767 38.1625 18.1767 40.4523C18.1767 42.7421 17.0318 44.3958 15.8869 44.3958ZM43.6184 2.03534H107.859L88.6502 15.1378H24.4099L43.6184 2.03534ZM21.6113 83.8304V17.682H87.7597V66.9117C81.0177 69.9647 76.0565 76.3251 75.0389 83.8304H21.6113ZM96.5371 105.71C85.9788 105.71 77.4558 97.1873 77.4558 86.629C77.4558 76.0707 85.9788 67.5477 96.5371 67.5477C107.095 67.5477 115.618 76.0707 115.618 86.629C115.618 97.1873 107.095 105.71 96.5371 105.71Z" fill="url(#paint0_linear_467_284)"/>
<path d="M43.2368 96.5512H8.89054V62.2049C8.89054 61.4417 8.38171 60.9329 7.61846 60.9329C6.85521 60.9329 6.34637 61.4417 6.34637 62.2049V97.8233C6.34637 98.5866 6.85521 99.0954 7.61846 99.0954H43.2368C44.0001 99.0954 44.5089 98.5866 44.5089 97.8233C44.5089 97.0601 44.0001 96.5512 43.2368 96.5512Z" fill="url(#paint1_linear_467_284)"/>
<path d="M65.244 96.5512H55.0673C54.304 96.5512 53.7952 97.06 53.7952 97.8233C53.7952 98.5865 54.304 99.0954 55.0673 99.0954H65.244C66.0072 99.0954 66.516 98.5865 66.516 97.8233C66.516 97.06 66.0072 96.5512 65.244 96.5512Z" fill="url(#paint2_linear_467_284)"/>
<path d="M86.3607 84.5936H106.714C107.223 84.5936 107.732 84.212 107.986 83.7031C108.241 83.1943 107.986 82.5583 107.477 82.3038L100.99 77.5971C100.481 77.2155 99.5904 77.3427 99.2087 77.8516C98.8271 78.3604 98.9543 79.2508 99.4632 79.6325L102.771 82.0494H86.3607C85.5974 82.0494 85.0886 82.5583 85.0886 83.3215C85.0886 84.0848 85.5974 84.5936 86.3607 84.5936Z" fill="url(#paint3_linear_467_284)"/>
<path d="M106.714 88.6643H86.3605C85.8516 88.6643 85.3428 89.0459 85.0884 89.5548C84.834 90.0636 85.0884 90.6996 85.5972 90.9541L92.0849 95.6608C92.3393 95.788 92.5937 95.9152 92.8481 95.9152C93.2297 95.9152 93.6114 95.788 93.8658 95.4064C94.2474 94.8975 94.1202 94.0071 93.6114 93.6254L90.304 91.2085H106.714C107.477 91.2085 107.986 90.6996 107.986 89.9364C107.986 89.1731 107.477 88.6643 106.714 88.6643Z" fill="url(#paint4_linear_467_284)"/>
<path d="M122.36 44.3958H118.799C117.908 44.3958 117.018 43.3781 116.763 41.7244H118.417C119.18 41.7244 119.689 41.2156 119.689 40.4523C119.689 39.6891 119.18 39.1802 118.417 39.1802H116.763C117.145 37.5265 118.035 36.3816 118.926 36.3816H122.488C123.251 36.3816 123.76 35.8728 123.76 35.1095C123.76 34.3463 123.251 33.8375 122.488 33.8375H118.926C117.399 33.8375 116.127 34.7279 115.237 36.2544C114.346 34.8551 113.074 33.8375 111.548 33.8375H107.986C105.569 33.8375 103.661 36 103.279 39.053H100.099C99.3357 39.053 98.8269 39.5618 98.8269 40.3251C98.8269 41.0883 99.3357 41.5972 100.099 41.5972H103.279C103.661 44.6502 105.569 46.8127 107.986 46.8127H111.548C113.074 46.8127 114.346 45.9223 115.237 44.3958C116.127 45.7951 117.399 46.8127 118.926 46.8127H122.488C123.251 46.8127 123.76 46.3039 123.76 45.5406C123.76 44.7774 123.251 44.2686 122.488 44.2686L122.36 44.3958ZM111.421 44.3958H107.859C106.968 44.3958 106.078 43.3781 105.823 41.7244H106.205C106.968 41.7244 107.477 41.2156 107.477 40.4523C107.477 39.6891 106.968 39.1802 106.205 39.1802H105.823C106.205 37.5265 107.095 36.5088 107.859 36.5088H111.421C112.311 36.5088 113.201 37.5265 113.456 39.1802H112.184C111.421 39.1802 110.912 39.6891 110.912 40.4523C110.912 41.2156 111.421 41.7244 112.184 41.7244H113.456C113.074 43.3781 112.184 44.3958 111.421 44.3958Z" fill="url(#paint5_linear_467_284)"/>
<path d="M60.4099 4.83392C60.0282 4.19788 59.265 4.07067 58.6289 4.4523L50.8692 9.28622L51.3781 5.59718C51.3781 5.08834 51.2508 4.57951 50.742 4.32509C50.3604 4.07067 49.8516 4.07067 49.3427 4.32509L39.2933 10.6855C38.6572 11.0671 38.53 11.8304 38.9116 12.4664C39.166 12.8481 39.5477 13.1025 39.9293 13.1025C40.3109 13.1025 40.4381 13.1025 40.5653 12.8481L48.3251 8.01414L47.8162 11.7032C47.8162 12.212 47.9434 12.7208 48.4523 12.9753C48.8339 13.2297 49.3427 13.2297 49.8516 12.9753L59.901 6.61484C60.5371 6.23322 60.6643 5.46997 60.2826 4.83392H60.4099Z" fill="url(#paint6_linear_467_284)"/>
<path d="M69.1874 7.6325H67.2793L68.6786 6.74205H74.9118C75.675 6.74205 76.1839 6.23321 76.1839 5.46996C76.1839 4.70671 75.675 4.19788 74.9118 4.19788H68.2969C68.0425 4.19788 67.7881 4.19788 67.6609 4.45229L57.6114 10.8127C56.9754 11.1943 56.8482 11.9576 57.2298 12.5936C57.4842 12.9753 57.8658 13.2297 58.2475 13.2297C58.6291 13.2297 58.7563 13.2297 58.8835 12.9753L63.3358 10.1767C63.3358 10.1767 63.5902 10.1767 63.7174 10.1767H69.1874C69.9507 10.1767 70.4595 9.66784 70.4595 8.90459C70.4595 8.14134 69.9507 7.6325 69.1874 7.6325Z" fill="url(#paint7_linear_467_284)"/>
<path d="M86.3604 6.74205H92.212C92.9753 6.74205 93.4841 6.23321 93.4841 5.46996C93.4841 4.70671 92.9753 4.19788 92.212 4.19788H79.8728C79.1096 4.19788 78.6007 4.70671 78.6007 5.46996C78.6007 6.23321 79.1096 6.74205 79.8728 6.74205H81.6537L75.2933 10.6855C74.6573 11.0671 74.5301 11.8304 74.9117 12.4664C75.1661 12.8481 75.5477 13.1025 75.9294 13.1025C76.311 13.1025 76.4382 13.1025 76.5654 12.8481L86.3604 6.74205Z" fill="url(#paint8_linear_467_284)"/>
<path d="M81.7808 34.9823C81.272 34.4735 80.5087 34.4735 79.9999 34.9823L74.9115 40.0707C74.4027 40.5795 74.4027 41.3428 74.9115 41.8516C75.4204 42.3604 75.5476 42.2332 75.802 42.2332C76.0564 42.2332 76.438 42.2332 76.6924 41.8516L81.7808 36.7633C82.2896 36.2544 82.2896 35.4912 81.7808 34.9823Z" fill="url(#paint9_linear_467_284)"/>
<path d="M34.4593 41.8516C34.9682 41.3428 34.9682 40.5795 34.4593 40.0707L29.371 34.9823C28.8621 34.4735 28.0989 34.4735 27.5901 34.9823C27.0812 35.4912 27.0812 36.2544 27.5901 36.7633L32.6784 41.8516C32.9328 42.106 33.3144 42.2332 33.5689 42.2332C33.8233 42.2332 34.2049 42.2332 34.4593 41.8516Z" fill="url(#paint10_linear_467_284)"/>
<path d="M54.6856 33.8375C55.4488 33.8375 55.9577 33.3286 55.9577 32.5654V25.3145C55.9577 24.5513 55.4488 24.0424 54.6856 24.0424C53.9223 24.0424 53.4135 24.5513 53.4135 25.3145V32.5654C53.4135 33.3286 53.9223 33.8375 54.6856 33.8375Z" fill="url(#paint11_linear_467_284)"/>
<path d="M68.4242 39.9435C68.1698 39.5619 67.7881 39.3074 67.4065 39.3074H41.9648C41.5832 39.3074 41.0744 39.5619 40.9471 39.9435L33.3146 51.7739C32.933 52.2827 33.0602 52.9187 33.5691 53.4276L53.9224 72.1272C54.1768 72.3816 54.4312 72.5089 54.8129 72.5089C55.1945 72.5089 55.4489 72.5088 55.7033 72.1272L76.0567 53.4276C76.5655 53.046 76.5655 52.2827 76.3111 51.7739L68.6786 39.9435H68.4242ZM72.6221 51.1378H64.4807L59.3924 41.8516H66.6433L72.6221 51.1378ZM44.7634 53.682L50.615 65.6396L37.5125 53.682H44.7634ZM61.6821 53.682L54.6857 68.1838L47.6892 53.682H61.8093H61.6821ZM47.6892 51.1378L52.7775 41.8516H56.4666L61.5549 51.1378H47.6892ZM64.4807 53.682H71.7316L58.6291 65.6396L64.4807 53.682ZM42.6009 41.8516H49.8517L44.7634 51.1378H36.6221L42.6009 41.8516Z" fill="url(#paint12_linear_467_284)"/>
<defs>
<linearGradient id="paint0_linear_467_284" x1="20.2887" y1="38" x2="110.418" y2="92.7137" gradientUnits="userSpaceOnUse">
<stop stop-color="#2E62FF"/>
<stop offset="1" stop-color="#4B24DC"/>
</linearGradient>
<linearGradient id="paint1_linear_467_284" x1="12.8345" y1="74.3604" x2="43.3263" y2="91.3131" gradientUnits="userSpaceOnUse">
<stop stop-color="#2E62FF"/>
<stop offset="1" stop-color="#4B24DC"/>
</linearGradient>
<linearGradient id="paint2_linear_467_284" x1="55.9579" y1="97.4464" x2="57.4824" y2="101.684" gradientUnits="userSpaceOnUse">
<stop stop-color="#2E62FF"/>
<stop offset="1" stop-color="#4B24DC"/>
</linearGradient>
<linearGradient id="paint3_linear_467_284" x1="88.9985" y1="79.915" x2="94.8122" y2="90.213" gradientUnits="userSpaceOnUse">
<stop stop-color="#2E62FF"/>
<stop offset="1" stop-color="#4B24DC"/>
</linearGradient>
<linearGradient id="paint4_linear_467_284" x1="88.8984" y1="91.2155" x2="94.7519" y2="101.537" gradientUnits="userSpaceOnUse">
<stop stop-color="#2E62FF"/>
<stop offset="1" stop-color="#4B24DC"/>
</linearGradient>
<linearGradient id="paint5_linear_467_284" x1="103.066" y1="38.4028" x2="115.245" y2="51.414" gradientUnits="userSpaceOnUse">
<stop stop-color="#2E62FF"/>
<stop offset="1" stop-color="#4B24DC"/>
</linearGradient>
<linearGradient id="paint6_linear_467_284" x1="42.4033" y1="7.31213" x2="50.5445" y2="18.2374" gradientUnits="userSpaceOnUse">
<stop stop-color="#2E62FF"/>
<stop offset="1" stop-color="#4B24DC"/>
</linearGradient>
<linearGradient id="paint7_linear_467_284" x1="60.2741" y1="7.37573" x2="68.655" y2="17.265" gradientUnits="userSpaceOnUse">
<stop stop-color="#2E62FF"/>
<stop offset="1" stop-color="#4B24DC"/>
</linearGradient>
<linearGradient id="paint8_linear_467_284" x1="77.8911" y1="7.33097" x2="86.1618" y2="17.0326" gradientUnits="userSpaceOnUse">
<stop stop-color="#2E62FF"/>
<stop offset="1" stop-color="#4B24DC"/>
</linearGradient>
<linearGradient id="paint9_linear_467_284" x1="75.8275" y1="37.2912" x2="81.9312" y2="40.6784" gradientUnits="userSpaceOnUse">
<stop stop-color="#2E62FF"/>
<stop offset="1" stop-color="#4B24DC"/>
</linearGradient>
<linearGradient id="paint10_linear_467_284" x1="28.5061" y1="37.2862" x2="34.6044" y2="40.6768" gradientUnits="userSpaceOnUse">
<stop stop-color="#2E62FF"/>
<stop offset="1" stop-color="#4B24DC"/>
</linearGradient>
<linearGradient id="paint11_linear_467_284" x1="53.8461" y1="27.4888" x2="56.4528" y2="27.8653" gradientUnits="userSpaceOnUse">
<stop stop-color="#2E62FF"/>
<stop offset="1" stop-color="#4B24DC"/>
</linearGradient>
<linearGradient id="paint12_linear_467_284" x1="40.4689" y1="50.9894" x2="70.1714" y2="72.5687" gradientUnits="userSpaceOnUse">
<stop stop-color="#2E62FF"/>
<stop offset="1" stop-color="#4B24DC"/>
</linearGradient>
</defs>
</svg>
