<svg width="100" height="108" viewBox="0 0 100 108" fill="none" xmlns="http://www.w3.org/2000/svg">
<path fill-rule="evenodd" clip-rule="evenodd" d="M2.61229 49.6939C2.61229 23.5224 23.8285 2.30613 50.0001 2.30613C76.1716 2.30613 97.3878 23.5224 97.3878 49.6939C97.3878 56.638 95.8942 63.2333 93.2107 69.1759L93.2649 69.4528L93.3056 69.6619C93.4986 70.6579 93.6944 71.7124 93.8903 72.8022C97.531 65.9017 99.5919 58.0385 99.5919 49.6939C99.5919 22.3051 77.3889 0.102051 50.0001 0.102051C22.6112 0.102051 0.408203 22.3051 0.408203 49.6939C0.408203 57.9123 2.40733 65.6638 5.94583 72.4886C6.12281 71.51 6.29952 70.562 6.47399 69.6619C6.52826 69.3818 6.58246 69.1056 6.63654 68.8337C4.04925 62.9805 2.61229 56.505 2.61229 49.6939ZM37.5475 95.4286C41.5156 96.5065 45.6907 97.0817 50.0001 97.0817C54.3095 97.0817 58.4845 96.5065 62.4527 95.4286H64.637C64.7752 95.938 64.9674 96.4333 65.2 96.913C60.41 98.4537 55.3022 99.2858 50.0001 99.2858C44.6472 99.2858 39.4925 98.4377 34.6628 96.8686C34.8757 96.405 35.049 95.9248 35.1702 95.4286H37.5475ZM40.8527 16.1743L41.7191 17.6757L56.1559 42.6921L57.0214 44.1919H55.2898H46.9142H46.3347L46.0466 43.689L40.8525 34.623L34.4244 45.8286H34.6816H36.4112L35.5482 47.3276L34.3174 49.4653H36.1998L41.0903 41.0369L41.9586 39.5405L42.8219 41.0398L47.0096 48.3133L47.3029 48.8227L47.0005 49.3268L46.9174 49.4653H48.7773L50.4558 46.5501L50.7443 46.049H51.3224H61.8286L55.3806 34.8086L55.2656 35.0003L54.3903 36.459L53.5415 34.9847L49.3537 27.7113L49.0653 27.2103L49.3554 26.7104L54.535 17.7839L55.4025 16.2888L56.2662 17.7861L74.609 49.5875C81.6917 50.3644 87.935 54.788 90.9442 61.2717C91.983 57.5908 92.5387 53.7073 92.5387 49.6939C92.5387 26.2004 73.4935 7.15514 50 7.15514C26.5064 7.15514 7.46116 26.2004 7.46116 49.6939C7.46116 53.601 7.98788 57.385 8.97419 60.9788C11.4181 55.9274 15.8412 52.1658 21.0775 50.4666L39.9867 17.676L40.8527 16.1743ZM23.7769 49.7891L40.8533 20.1768L53.5581 42.1919H47.4938L41.7207 32.1152L40.8536 30.6016L39.9856 32.1147L31.8305 46.331L30.9714 47.8286H32.6979H32.9519L32.0096 49.4653H27.4081C26.1767 49.4653 24.9623 49.5758 23.7769 49.7891ZM7.72849 64.3956C7.36333 65.7935 6.9709 67.6343 6.57417 69.6813C5.95656 72.8679 5.31065 76.6541 4.72451 80.2813C4.13814 83.9098 3.61055 87.3858 3.2296 89.9542C3.0391 91.2385 2.88523 92.2962 2.77895 93.0331C2.72581 93.4015 2.68457 93.6897 2.65659 93.8859L2.62476 94.1098L2.61662 94.1672L2.61456 94.1818L2.61404 94.1855L2.6139 94.1865C2.61387 94.1867 2.61385 94.1868 3.60405 94.3265L2.61385 94.1868L2.60923 94.2196L2.60678 94.2527C2.37411 97.3937 2.95224 99.8801 4.07581 101.828C5.1974 103.772 6.81936 105.104 8.55396 106.012C11.9868 107.81 15.965 108 17.8204 108C21.7176 108 25.3628 106.467 28.0643 104.118L28.0735 104.11L28.0824 104.102C28.3616 103.847 28.666 103.576 28.9862 103.291L28.9863 103.291C30.0644 102.332 31.3216 101.214 32.3977 100.006C33.5918 98.6656 34.679 97.0944 35.0896 95.3265H64.7154C65.162 97.0445 66.2379 98.6083 67.4169 99.9575C68.5722 101.28 69.919 102.495 71.052 103.517C71.2765 103.72 71.4926 103.915 71.6972 104.102C74.4191 106.587 77.9668 108 81.9592 108C83.8677 108 87.8479 107.81 91.2685 106.012C92.9974 105.102 94.6088 103.769 95.7211 101.824C96.835 99.8771 97.4053 97.3917 97.1728 94.2527L97.1703 94.2196L97.1657 94.1868L96.1755 94.3265C97.1657 94.1868 97.1657 94.1867 97.1657 94.1865L97.1655 94.1855L97.165 94.1818L97.1629 94.1672L97.1548 94.1098L97.123 93.8859C97.095 93.6897 97.0538 93.4015 97.0006 93.0331C96.8943 92.2962 96.7405 91.2385 96.55 89.9542C96.169 87.3858 95.6414 83.9098 95.0551 80.2813C94.4689 76.6541 93.823 72.8679 93.2054 69.6813C92.842 67.8064 92.4823 66.1046 92.1438 64.7576C93.8264 60.0506 94.7428 54.9793 94.7428 49.6939C94.7428 24.9831 74.7108 4.95106 50 4.95106C25.2891 4.95106 5.25708 24.9831 5.25708 49.6939C5.25708 54.8441 6.12721 59.7909 7.72849 64.3956ZM72.2296 49.4653L55.3974 20.2827L51.3754 27.2142L54.4259 32.5125L54.5425 32.3182L55.4193 30.8568L56.2674 32.3351L64.4225 46.5514L65.2815 48.049H63.5551H51.9005L51.0851 49.4653H72.2296ZM44.585 49.4653H38.5121L41.9519 43.5371L44.9831 48.8018L44.585 49.4653ZM73.4819 76.8041C73.4819 76.1391 74.021 75.6 74.686 75.6C75.351 75.6 75.8901 76.1391 75.8901 76.8041C75.8901 77.4691 75.351 78.0082 74.686 78.0082C74.021 78.0082 73.4819 77.4691 73.4819 76.8041ZM74.686 73.6C72.9165 73.6 71.4819 75.0346 71.4819 76.8041C71.4819 78.5737 72.9165 80.0082 74.686 80.0082C76.4556 80.0082 77.8901 78.5737 77.8901 76.8041C77.8901 75.0346 76.4556 73.6 74.686 73.6ZM74.686 65.1306C74.021 65.1306 73.4819 65.6697 73.4819 66.3347C73.4819 66.9997 74.021 67.5388 74.686 67.5388C75.351 67.5388 75.8901 66.9997 75.8901 66.3347C75.8901 65.6697 75.351 65.1306 74.686 65.1306ZM71.4819 66.3347C71.4819 64.5652 72.9165 63.1306 74.686 63.1306C76.4556 63.1306 77.8901 64.5652 77.8901 66.3347C77.8901 68.1043 76.4556 69.5388 74.686 69.5388C72.9165 69.5388 71.4819 68.1043 71.4819 66.3347ZM68.1921 71.6246C68.1921 70.9596 68.7312 70.4205 69.3962 70.4205C70.0612 70.4205 70.6003 70.9596 70.6003 71.6246C70.6003 72.2896 70.0612 72.8287 69.3962 72.8287C68.7312 72.8287 68.1921 72.2896 68.1921 71.6246ZM69.3962 68.4205C67.6266 68.4205 66.1921 69.855 66.1921 71.6246C66.1921 73.3941 67.6266 74.8287 69.3962 74.8287C71.1657 74.8287 72.6003 73.3941 72.6003 71.6246C72.6003 69.855 71.1657 68.4205 69.3962 68.4205ZM79.8656 70.4205C79.2006 70.4205 78.6615 70.9596 78.6615 71.6246C78.6615 72.2896 79.2006 72.8287 79.8656 72.8287C80.5306 72.8287 81.0696 72.2896 81.0696 71.6246C81.0696 70.9596 80.5306 70.4205 79.8656 70.4205ZM76.6615 71.6246C76.6615 69.855 78.096 68.4205 79.8656 68.4205C81.6351 68.4205 83.0696 69.855 83.0696 71.6246C83.0696 73.3941 81.6351 74.8287 79.8656 74.8287C78.096 74.8287 76.6615 73.3941 76.6615 71.6246ZM18.8205 70.5225C18.8205 68.0924 20.7904 66.1225 23.2205 66.1225C25.6505 66.1225 27.6205 68.0924 27.6205 70.5225C27.6205 72.9526 25.6505 74.9225 23.2205 74.9225C20.7904 74.9225 18.8205 72.9526 18.8205 70.5225ZM23.2205 64.1225C19.6858 64.1225 16.8205 66.9879 16.8205 70.5225C16.8205 74.0571 19.6858 76.9225 23.2205 76.9225C26.7551 76.9225 29.6205 74.0571 29.6205 70.5225C29.6205 66.9879 26.7551 64.1225 23.2205 64.1225ZM57.0449 63.0286C57.0449 62.4763 57.4926 62.0286 58.0449 62.0286H62.4531C63.0054 62.0286 63.4531 62.4763 63.4531 63.0286C63.4531 63.5809 63.0054 64.0286 62.4531 64.0286H58.0449C57.4926 64.0286 57.0449 63.5809 57.0449 63.0286ZM37.4369 62.0286C36.8846 62.0286 36.4369 62.4763 36.4369 63.0286C36.4369 63.5809 36.8846 64.0286 37.4369 64.0286H41.8451C42.3974 64.0286 42.8451 63.5809 42.8451 63.0286C42.8451 62.4763 42.3974 62.0286 41.8451 62.0286H37.4369ZM41.0734 76.5757C41.6257 76.5757 42.0734 77.0234 42.0734 77.5757V82.0859H46.5836C47.1359 82.0859 47.5836 82.5336 47.5836 83.0859C47.5836 83.6381 47.1359 84.0859 46.5836 84.0859H42.0734V88.5961C42.0734 89.1484 41.6257 89.5961 41.0734 89.5961C40.5211 89.5961 40.0734 89.1484 40.0734 88.5961V84.0859H35.5632C35.0109 84.0859 34.5632 83.6381 34.5632 83.0859C34.5632 82.5336 35.0109 82.0859 35.5632 82.0859H40.0734V77.5757C40.0734 77.0234 40.5211 76.5757 41.0734 76.5757ZM58.9265 78.6858C56.4965 78.6858 54.5265 80.6558 54.5265 83.0858C54.5265 85.5159 56.4965 87.4858 58.9265 87.4858C61.3566 87.4858 63.3265 85.5159 63.3265 83.0858C63.3265 80.6558 61.3566 78.6858 58.9265 78.6858ZM52.5265 83.0858C52.5265 79.5512 55.3919 76.6858 58.9265 76.6858C62.4611 76.6858 65.3265 79.5512 65.3265 83.0858C65.3265 86.6205 62.4611 89.4858 58.9265 89.4858C55.3919 89.4858 52.5265 86.6205 52.5265 83.0858ZM5.80818 100.828C4.92054 99.2896 4.39725 97.2265 4.59892 94.4332L4.60495 94.3906L4.63657 94.1682C4.6644 93.973 4.70549 93.6859 4.75846 93.3186C4.86442 92.584 5.0179 91.529 5.20796 90.2476C5.58811 87.6846 6.11434 84.2177 6.69889 80.6003C7.28367 76.9816 7.92578 73.2188 8.53763 70.0618C9.15649 66.8687 9.72701 64.3923 10.1573 63.2788L10.1585 63.2755C12.8741 56.1731 19.773 51.4653 27.4081 51.4653H72.3714C80.0065 51.4653 86.9055 56.1731 89.6211 63.2755L89.6223 63.2788C90.0526 64.3923 90.6231 66.8687 91.2419 70.0618C91.8538 73.2188 92.4959 76.9816 93.0807 80.6003C93.6652 84.2177 94.1915 87.6846 94.5716 90.2476C94.7617 91.529 94.9152 92.584 95.0211 93.3186C95.0741 93.6859 95.1152 93.973 95.143 94.1682L95.1746 94.3906L95.1806 94.4331C95.3825 97.2285 94.8652 99.2927 93.985 100.831C93.0999 102.379 91.8047 103.47 90.3376 104.241C87.3664 105.804 83.7976 106 81.9592 106C78.4577 106 75.3932 104.768 73.0457 102.625C72.8254 102.424 72.5983 102.219 72.3667 102.009C71.2334 100.986 69.9925 99.8654 68.9229 98.6415C67.627 97.1585 66.7139 95.6649 66.5311 94.2025L66.4216 93.3265H65.5388H34.2408H33.3276L33.2449 94.236C33.109 95.731 32.2091 97.211 30.9043 98.6756C29.9136 99.7876 28.7808 100.796 27.7168 101.743L27.7167 101.743L27.7163 101.743C27.3829 102.04 27.0563 102.331 26.7429 102.616C24.376 104.671 21.1923 106 17.8204 106C16.039 106 12.4682 105.804 9.48169 104.241C8.0066 103.468 6.70125 102.376 5.80818 100.828Z" fill="url(#paint0_linear_467_308)"/>
<defs>
<linearGradient id="paint0_linear_467_308" x1="18.5" y1="22.5" x2="99.5919" y2="108.787" gradientUnits="userSpaceOnUse">
<stop stop-color="#2E62FF"/>
<stop offset="1" stop-color="#4B24DC"/>
</linearGradient>
</defs>
</svg>
