<svg width="94" height="108" viewBox="0 0 94 108" fill="none" xmlns="http://www.w3.org/2000/svg">
<path fill-rule="evenodd" clip-rule="evenodd" d="M0.655813 26.5987C0.994752 26.4013 1.41307 26.3989 1.75422 26.5925L47.5991 52.6006C47.9442 52.7964 48.1574 53.1625 48.1574 53.5592V106.898C48.1574 107.292 47.9474 107.655 47.6065 107.852C47.2656 108.049 46.8456 108.049 46.5046 107.853L0.659725 81.4035C0.31858 81.2067 0.108398 80.8428 0.108398 80.449V27.551C0.108398 27.1588 0.316874 26.7961 0.655813 26.5987ZM2.31248 29.4432V79.8125L45.9533 104.99V54.201L2.31248 29.4432Z" fill="url(#paint0_linear_467_417)"/>
<path fill-rule="evenodd" clip-rule="evenodd" d="M17.3202 48.6018C16.1067 49.1401 15.0963 50.7121 15.0963 54.2205H12.8922C12.8922 50.4554 13.9756 47.6743 16.4264 46.5871C18.773 45.5461 21.8144 46.3439 25.0158 48.1973C25.2569 48.3369 25.4802 48.4661 25.6865 48.5855C25.7073 48.5969 25.7288 48.6087 25.7506 48.6208C25.8944 48.7003 26.0943 48.8136 26.3122 48.9381C26.7495 49.188 27.2758 49.4927 27.6087 49.6869C27.692 49.7355 27.7639 49.7776 27.8197 49.8104C27.8714 49.8409 27.9191 49.8691 27.947 49.8862C27.9509 49.8887 27.9744 49.903 27.999 49.9198C28.0057 49.9244 28.0261 49.9383 28.0509 49.9574C28.0645 49.9681 28.0994 49.997 28.1204 50.0156C28.1584 50.0519 28.2762 50.1909 28.3453 50.3009C28.3619 50.3571 28.3699 50.4211 28.3703 50.4904C31.4532 53.0955 33.5633 56.5445 34.4926 59.8603C35.6583 64.0193 35.0462 68.4937 31.3671 70.4047L29.4976 71.3944L28.4663 69.4465L30.3481 68.4502C32.6161 67.2742 33.4358 64.2567 32.3703 60.4551C31.3279 56.7359 28.5548 52.7665 24.4692 50.4393C24.4236 50.4133 24.38 50.3842 24.3387 50.3521C24.203 50.2736 24.0606 50.1912 23.9114 50.1048C20.8312 48.3215 18.6379 48.0173 17.3202 48.6018Z" fill="url(#paint1_linear_467_417)"/>
<path fill-rule="evenodd" clip-rule="evenodd" d="M24.8229 72.7035C25.7382 71.2325 27.0562 70.2651 28.5698 69.4501L29.6148 71.3907C28.2631 72.1185 27.3219 72.8593 26.6943 73.8679C26.0669 74.8763 25.676 76.2779 25.676 78.4653H23.4719C23.4719 76.0241 23.9075 74.1747 24.8229 72.7035Z" fill="url(#paint2_linear_467_417)"/>
<path d="M25.676 83.9755C25.676 84.6367 25.2351 84.9674 24.5739 84.6367C23.9127 84.3061 23.4719 83.4245 23.4719 82.7633C23.4719 82.1021 23.9127 81.7714 24.5739 82.1021C25.2351 82.4327 25.676 83.3143 25.676 83.9755Z" fill="url(#paint3_linear_467_417)"/>
<path fill-rule="evenodd" clip-rule="evenodd" d="M46.5046 0.147469C46.8458 -0.0493614 47.2661 -0.0491424 47.607 0.148044L93.3417 26.597C93.6836 26.7947 93.8935 27.1602 93.8921 27.555C93.8906 27.9499 93.678 28.3138 93.3348 28.509L47.6001 54.5172C47.2627 54.709 46.8492 54.7093 46.5115 54.5177L0.666654 28.5096C0.322852 28.3145 0.109837 27.9503 0.108406 27.555C0.106974 27.1597 0.317344 26.794 0.659725 26.5964L46.5046 0.147469ZM3.42968 27.543L47.0547 52.2918L90.5748 27.543L47.0547 2.37472L3.42968 27.543Z" fill="url(#paint4_linear_467_417)"/>
<path fill-rule="evenodd" clip-rule="evenodd" d="M62.7032 19.7987C56.7055 16.3263 49.7427 15.8382 43.7432 19.2518L42.6532 17.3361C49.4374 13.4761 57.2419 14.0901 63.8075 17.8912C65.3773 18.8 66.1859 19.27 66.5179 19.4647C66.5996 19.5126 66.6578 19.547 66.6918 19.5675C66.7004 19.5726 66.7113 19.5793 66.7221 19.5861C66.7272 19.5892 66.7366 19.5951 66.7477 19.6024C66.7531 19.606 66.7626 19.6123 66.7741 19.6203C66.7815 19.6255 66.8089 19.6446 66.8415 19.6712C66.8609 19.6874 66.912 19.734 66.9431 19.7653C67.0002 19.8309 67.1583 20.1201 67.2272 20.391C67.9551 21.1384 68.4816 21.9261 68.7934 22.746C69.4528 24.4796 69.085 26.1807 67.9781 27.5856C66.9053 28.9473 65.1606 30.0184 63.0115 30.7426C60.8483 31.4717 58.1969 31.877 55.2053 31.849H51.6839V29.6449H55.2209C58.0128 29.6715 60.4152 29.2917 62.3076 28.654C64.2154 28.011 65.5289 27.1329 66.2468 26.2216C66.9308 25.3535 67.0864 24.458 66.7333 23.5295C66.3713 22.5777 65.417 21.4466 63.5441 20.3022C63.4986 20.2757 63.457 20.2514 63.4201 20.2298C63.3553 20.1919 63.3001 20.1593 63.2632 20.137L63.2616 20.136C63.2503 20.1292 63.2162 20.1087 63.1848 20.0874C63.1832 20.0863 63.1555 20.0679 63.1199 20.04C62.9874 19.9632 62.8486 19.8828 62.7032 19.7987Z" fill="url(#paint5_linear_467_417)"/>
<path fill-rule="evenodd" clip-rule="evenodd" d="M37.4632 32.3297C41.7043 29.8558 46.0439 29.5347 51.6838 29.5347V31.7388C46.0828 31.7388 42.2673 32.079 38.5737 34.2336L37.4632 32.3297Z" fill="url(#paint6_linear_467_417)"/>
<path d="M35.1532 36.4776C34.3818 36.9184 33.1695 36.9184 32.3981 36.4776C31.6267 36.0368 31.6267 35.3756 32.3981 34.9347C33.1695 34.4939 34.3818 34.4939 35.1532 34.9347C35.9246 35.3756 35.9246 36.0368 35.1532 36.4776Z" fill="url(#paint7_linear_467_417)"/>
<path fill-rule="evenodd" clip-rule="evenodd" d="M93.3443 26.5984C93.6835 26.7958 93.8922 27.1586 93.8922 27.551V80.449C93.8922 80.8424 93.6824 81.206 93.3418 81.403L47.6072 107.852C47.2662 108.049 46.8459 108.049 46.5048 107.853C46.1636 107.656 45.9534 107.292 45.9534 106.898V53.5592C45.9534 53.1629 46.1662 52.7971 46.5107 52.6012L92.2454 26.593C92.5865 26.399 93.0051 26.4011 93.3443 26.5984ZM48.1575 54.2002V104.988L91.6881 79.8132V29.4455L48.1575 54.2002Z" fill="url(#paint8_linear_467_417)"/>
<path fill-rule="evenodd" clip-rule="evenodd" d="M71.717 49.0648C71.5952 49.1621 71.4747 49.2342 71.3923 49.2813C71.2764 49.3475 71.1515 49.4104 71.052 49.4602C65.0638 52.9381 61.1614 58.66 61.1614 65.5714H58.9573C58.9573 57.7265 63.4178 51.3332 69.9765 47.536C69.996 47.5247 70.0158 47.5141 70.0359 47.504C70.1527 47.4456 70.234 47.4046 70.2988 47.3676C70.3167 47.3574 70.3293 47.3497 70.3375 47.3445C70.3976 47.2897 70.4636 47.2418 70.5343 47.2015C72.8256 45.8964 74.9106 45.3664 76.6719 45.6697C78.5033 45.985 79.7953 47.1688 80.4643 48.8372C81.1145 50.4585 81.1779 52.5146 80.7303 54.7454C80.2797 56.9912 79.2967 59.4918 77.7553 62.0608L77.7523 62.0657L75.8789 65.1515L73.9949 64.0076L75.8653 60.9268C75.8658 60.926 75.8663 60.9252 75.8668 60.9243C77.3 58.5351 78.1763 56.2702 78.5693 54.3118C78.9654 52.3376 78.8567 50.7501 78.4186 49.6576C77.9994 48.6121 77.287 48.0121 76.2979 47.8418C75.2544 47.6621 73.7331 47.934 71.717 49.0648ZM70.3488 47.3371C70.3487 47.3371 70.3487 47.3372 70.3486 47.3372L70.3488 47.3371Z" fill="url(#paint9_linear_467_417)"/>
<path fill-rule="evenodd" clip-rule="evenodd" d="M69.4267 77.8041C69.4267 72.8724 71.2056 68.9144 74.0983 64.019L75.9958 65.1403C73.158 69.9428 71.6307 73.4787 71.6307 77.8041H69.4267Z" fill="url(#paint10_linear_467_417)"/>
<path d="M71.6307 82.1021C71.6307 82.7633 71.1899 83.6449 70.5287 83.9755C69.8675 84.3062 69.4267 83.9755 69.4267 83.3143C69.4267 82.6531 69.8675 81.7715 70.5287 81.4409C71.1899 81.1102 71.6307 81.4409 71.6307 82.1021Z" fill="url(#paint11_linear_467_417)"/>
<defs>
<linearGradient id="paint0_linear_467_417" x1="7.50494" y1="48.9171" x2="63.0978" y2="86.4875" gradientUnits="userSpaceOnUse">
<stop stop-color="#2E62FF"/>
<stop offset="1" stop-color="#4B24DC"/>
</linearGradient>
<linearGradient id="paint1_linear_467_417" x1="16.2996" y1="53.0873" x2="34.8644" y2="71.7405" gradientUnits="userSpaceOnUse">
<stop stop-color="#2E62FF"/>
<stop offset="1" stop-color="#4B24DC"/>
</linearGradient>
<linearGradient id="paint2_linear_467_417" x1="24.4175" y1="71.9339" x2="30.8448" y2="76.9572" gradientUnits="userSpaceOnUse">
<stop stop-color="#2E62FF"/>
<stop offset="1" stop-color="#4B24DC"/>
</linearGradient>
<linearGradient id="paint3_linear_467_417" x1="23.8112" y1="82.7422" x2="25.8538" y2="84.5903" gradientUnits="userSpaceOnUse">
<stop stop-color="#2E62FF"/>
<stop offset="1" stop-color="#4B24DC"/>
</linearGradient>
<linearGradient id="paint4_linear_467_417" x1="14.5452" y1="15.0597" x2="46.9828" y2="78.8961" gradientUnits="userSpaceOnUse">
<stop stop-color="#2E62FF"/>
<stop offset="1" stop-color="#4B24DC"/>
</linearGradient>
<linearGradient id="paint5_linear_467_417" x1="46.7276" y1="19.4425" x2="57.4968" y2="38.5328" gradientUnits="userSpaceOnUse">
<stop stop-color="#2E62FF"/>
<stop offset="1" stop-color="#4B24DC"/>
</linearGradient>
<linearGradient id="paint6_linear_467_417" x1="39.6523" y1="30.8293" x2="41.4888" y2="37.2047" gradientUnits="userSpaceOnUse">
<stop stop-color="#2E62FF"/>
<stop offset="1" stop-color="#4B24DC"/>
</linearGradient>
<linearGradient id="paint7_linear_467_417" x1="32.4218" y1="35.2114" x2="33.7033" y2="37.8206" gradientUnits="userSpaceOnUse">
<stop stop-color="#2E62FF"/>
<stop offset="1" stop-color="#4B24DC"/>
</linearGradient>
<linearGradient id="paint8_linear_467_417" x1="53.333" y1="48.9171" x2="108.878" y2="86.3691" gradientUnits="userSpaceOnUse">
<stop stop-color="#2E62FF"/>
<stop offset="1" stop-color="#4B24DC"/>
</linearGradient>
<linearGradient id="paint9_linear_467_417" x1="62.3533" y1="51.0926" x2="76.6365" y2="69.1777" gradientUnits="userSpaceOnUse">
<stop stop-color="#2E62FF"/>
<stop offset="1" stop-color="#4B24DC"/>
</linearGradient>
<linearGradient id="paint10_linear_467_417" x1="70.4379" y1="67.8169" x2="78.9628" y2="72.4767" gradientUnits="userSpaceOnUse">
<stop stop-color="#2E62FF"/>
<stop offset="1" stop-color="#4B24DC"/>
</linearGradient>
<linearGradient id="paint11_linear_467_417" x1="69.7659" y1="82.081" x2="71.8085" y2="83.9291" gradientUnits="userSpaceOnUse">
<stop stop-color="#2E62FF"/>
<stop offset="1" stop-color="#4B24DC"/>
</linearGradient>
</defs>
</svg>
