<svg width="232" height="203" viewBox="0 0 232 203" fill="none" xmlns="http://www.w3.org/2000/svg">
<g filter="url(#filter0_d_467_430)">
<path d="M33.4423 144.118L24.6319 119.912L35.2692 116.04C37.8753 115.092 40.0134 115.08 41.6837 116.004C43.379 116.919 44.6462 118.53 45.4853 120.835C46.1329 122.614 46.2324 124.252 45.7841 125.749C45.3607 127.237 44.3701 128.492 42.812 129.513C43.4226 129.631 43.9262 129.845 44.3227 130.155C44.7352 130.43 45.1978 130.844 45.7105 131.395L51.522 137.538L48.3646 138.687L42.7241 132.78C42.1247 132.147 41.5277 131.754 40.933 131.601C40.3634 131.44 39.4897 131.573 38.312 132.002L33.2001 133.863L36.5245 142.996L33.4423 144.118ZM32.3245 131.457L39.0151 129.022C40.6439 128.429 41.776 127.563 42.4113 126.424C43.0625 125.25 43.0598 123.761 42.4031 121.957C41.1718 118.574 38.9399 117.471 35.7074 118.647L28.6033 121.233L32.3245 131.457ZM56.0537 135.888L47.2432 111.682L63.5939 105.731L64.4831 108.174L51.2147 113.003L54.2928 121.461L66.2081 117.124L67.0837 119.529L55.1684 123.866L58.2603 132.361L71.5287 127.532L72.4043 129.937L56.0537 135.888ZM76.9031 128.3L68.0926 104.093L77.5648 100.646C81.0729 99.3689 83.988 99.3863 86.31 100.698C88.6319 102.009 90.5864 104.845 92.1734 109.206C93.6783 113.34 93.98 116.664 93.0785 119.177C92.193 121.656 89.9586 123.548 86.3752 124.852L76.9031 128.3ZM79.1097 124.772L84.9358 122.652C86.6398 122.032 87.9644 121.266 88.9096 120.354C89.8457 119.418 90.3386 118.16 90.3882 116.581C90.4629 114.993 90.0306 112.908 89.0912 110.327C88.1609 107.771 87.1727 105.875 86.1266 104.638C85.1056 103.392 83.9309 102.699 82.6026 102.558C81.2903 102.383 79.7195 102.628 77.8902 103.294L72.0641 105.415L79.1097 124.772ZM98.2121 120.544L98.6106 92.9857L102.219 91.6723L120.201 112.541L117.044 113.69L112.066 107.967L101.542 111.798L101.407 119.381L98.2121 120.544ZM101.178 109.163L110.613 105.729L101.349 95.0114L101.178 109.163ZM133.639 108.075C131.033 109.024 128.688 109.324 126.603 108.976C124.534 108.594 122.75 107.668 121.251 106.199C119.742 104.705 118.55 102.755 117.674 100.35C116.717 97.7185 116.283 95.2797 116.373 93.0333C116.464 90.7869 117.17 88.8274 118.491 87.1547C119.802 85.457 121.811 84.1156 124.518 83.1306C125.921 82.6199 127.223 82.2595 128.424 82.0496C129.649 81.8305 130.827 81.7139 131.957 81.6999L132.942 84.4063C131.803 84.3952 130.633 84.4947 129.432 84.7046C128.223 84.8895 126.991 85.21 125.738 85.666C123.558 86.4595 121.98 87.5023 121.003 88.7943C120.026 90.0864 119.544 91.6096 119.559 93.3639C119.573 95.1181 119.972 97.0728 120.756 99.2278C121.842 102.21 123.383 104.26 125.379 105.378C127.391 106.462 129.925 106.447 132.982 105.335C134.11 104.924 135.218 104.421 136.307 103.827C137.421 103.222 138.411 102.55 139.276 101.809L140.275 104.553C139.407 105.21 138.429 105.835 137.34 106.43C136.276 107.016 135.043 107.564 133.639 108.075ZM151.534 101.136L143.613 79.373L135.569 82.3007L134.68 79.8575L153.85 72.8803L154.739 75.3235L146.695 78.2511L154.617 100.014L151.534 101.136ZM166.431 95.7144L157.62 71.5079L173.971 65.5567L174.86 67.9999L161.592 72.8293L164.67 81.2865L176.585 76.9497L177.461 79.3553L165.546 83.6921L168.637 92.1869L181.906 87.3576L182.781 89.7632L166.431 95.7144ZM187.28 88.1258L178.47 63.9193L187.942 60.4718C191.45 59.1949 194.365 59.2123 196.687 60.5239C199.009 61.8355 200.964 64.6714 202.551 69.0315C204.055 73.1662 204.357 76.4901 203.456 79.0033C202.57 81.4824 200.336 83.374 196.752 84.6782L187.28 88.1258ZM189.487 84.5984L195.313 82.4778C197.017 81.8576 198.342 81.0918 199.287 80.1802C200.223 79.2435 200.716 77.9857 200.765 76.4069C200.84 74.8189 200.408 72.7344 199.468 70.1534C198.538 67.5974 197.55 65.701 196.504 64.4642C195.483 63.2183 194.308 62.5249 192.98 62.384C191.667 62.209 190.097 62.4544 188.267 63.1202L182.441 65.2407L189.487 84.5984Z" fill="white"/>
<path fill-rule="evenodd" clip-rule="evenodd" d="M61.5331 93.4553C63.8747 74.2883 76.643 57.0946 96.0313 50.0378C115.42 42.9811 136.253 47.9449 150.367 61.1225L152.466 60.3585C137.814 46.1633 115.805 40.7122 95.3473 48.1584C74.8891 55.6046 61.5336 73.927 59.4339 94.2193L61.5331 93.4553ZM77.9501 138.561L75.8508 139.325C90.5029 153.52 112.511 158.971 132.969 151.525C153.428 144.078 166.783 125.756 168.883 105.464L166.784 106.228C164.442 125.395 151.674 142.588 132.285 149.645C112.897 156.702 92.0642 151.738 77.9501 138.561Z" fill="#FF0000"/>
<path fill-rule="evenodd" clip-rule="evenodd" d="M45.141 99.4215C45.315 71.396 62.6802 45.1497 90.559 35.0027C118.438 24.8556 148.611 33.7993 166.759 55.1562L168.76 54.4278C150.141 32.0439 118.807 22.5928 89.875 33.1233C60.9427 43.6538 43.0146 71.0349 43.1398 100.15L45.141 99.4215ZM61.5579 144.527L59.5567 145.255C78.1756 167.639 109.51 177.09 138.442 166.56C167.374 156.029 185.302 128.648 185.177 99.533L183.176 100.261C183.002 128.287 165.637 154.533 137.758 164.68C109.879 174.827 79.7057 165.884 61.5579 144.527Z" fill="#FF0000"/>
</g>
<defs>
<filter id="filter0_d_467_430" x="0.495058" y="12.8221" width="230.543" height="190.039" filterUnits="userSpaceOnUse" color-interpolation-filters="sRGB">
<feFlood flood-opacity="0" result="BackgroundImageFix"/>
<feColorMatrix in="SourceAlpha" type="matrix" values="0 0 0 0 0 0 0 0 0 0 0 0 0 0 0 0 0 0 127 0" result="hardAlpha"/>
<feOffset dy="8"/>
<feGaussianBlur stdDeviation="12"/>
<feComposite in2="hardAlpha" operator="out"/>
<feColorMatrix type="matrix" values="0 0 0 0 1 0 0 0 0 0 0 0 0 0 0 0 0 0 1 0"/>
<feBlend mode="normal" in2="BackgroundImageFix" result="effect1_dropShadow_467_430"/>
<feBlend mode="normal" in="SourceGraphic" in2="effect1_dropShadow_467_430" result="shape"/>
</filter>
</defs>
</svg>
