<svg width="195" height="24" viewBox="0 0 195 24" fill="none" xmlns="http://www.w3.org/2000/svg">
<path fill-rule="evenodd" clip-rule="evenodd" d="M98.1608 13.4448L89.4329 22.8943L88.4151 23.9962L87.3974 22.8943L79.1765 13.9937L0.918945 12.2073L78.6529 10.5692L87.3974 1.10189L88.4151 0L89.4329 1.10189L98.1608 10.5514L106.889 1.10189L107.907 0L108.924 1.10189L117.678 10.5796L194.919 12.2072L117.156 13.9824L108.924 22.8943L107.907 23.9962L106.889 22.8943L98.1608 13.4448ZM88.4151 4.40758L95.426 11.9981L88.4151 19.5886L81.4042 11.9981L88.4151 4.40758ZM107.907 4.40758L114.917 11.9981L107.907 19.5886L100.896 11.9981L107.907 4.40758Z" fill="url(#paint0_linear_488_1186)"/>
<defs>
<linearGradient id="paint0_linear_488_1186" x1="-40.2153" y1="18.8194" x2="-22.269" y2="80.3468" gradientUnits="userSpaceOnUse">
<stop stop-color="#FFF4D1"/>
<stop offset="0.179031" stop-color="#F5D28F"/>
<stop offset="1" stop-color="#675537"/>
</linearGradient>
</defs>
</svg>
