<svg width="44" height="24" viewBox="0 0 44 24" fill="none" xmlns="http://www.w3.org/2000/svg">
<path opacity="0.16" d="M12.8926 23.9008C19.4624 23.8946 24.7934 18.5667 24.7934 12.0184C24.7934 5.47021 19.4624 0.0960409 12.8802 0.0991224C6.29811 0.102204 0.979395 5.44555 0.991721 12.0215C1.00405 18.5975 6.33817 23.9069 12.8926 23.9008ZM37.9022 12.0092C37.9088 10.6271 37.7694 9.24816 37.4862 7.89536C37.175 6.39774 36.6943 4.95867 35.9146 3.63362C35.3754 2.72149 34.7283 1.90797 33.8284 1.3194C32.9286 0.730834 32.0134 0.521291 30.9842 0.780139C30.1707 0.983519 29.502 1.43958 28.9165 2.02815C28.1769 2.76464 27.6346 3.63979 27.197 4.58273C26.2294 6.68124 25.8165 8.9061 25.724 11.2018C25.6517 12.843 25.7842 14.4868 26.1185 16.0953C26.4513 17.6699 26.9597 19.1799 27.8102 20.5573C28.3433 21.4171 28.9843 22.1813 29.8502 22.7267C30.7747 23.3091 31.7669 23.494 32.8239 23.1643C33.6189 22.9178 34.266 22.437 34.8269 21.8361C35.6034 21.0103 36.1612 20.0427 36.5957 19.0042C37.5324 16.767 37.8868 14.4189 37.9022 12.0092ZM38.5586 11.8243C38.611 13.0446 38.6264 14.1046 38.7034 15.1585C38.7805 16.1477 38.9006 17.1368 39.0393 18.1229C39.1656 19.0196 39.3629 19.904 39.6772 20.7607C39.8282 21.1705 39.9946 21.5742 40.2966 21.9039C40.5986 22.2337 40.9837 22.2768 41.3042 21.8947C41.4797 21.6809 41.6258 21.4446 41.7387 21.1921C42.1424 20.32 42.3396 19.3863 42.5091 18.4496C42.771 16.9828 42.9035 15.5005 42.9652 14.0153C43.0427 12.2496 43.017 10.4808 42.8881 8.71812C42.7926 7.44546 42.6478 6.17896 42.3858 4.92786C42.2256 4.1544 42.0407 3.38402 41.6771 2.67835C41.5469 2.42831 41.382 2.19799 41.1871 1.99426C40.9622 1.75698 40.6602 1.76314 40.4168 1.98809C40.275 2.11752 40.1363 2.26851 40.0531 2.44108C39.8682 2.81394 39.6864 3.19913 39.5601 3.59664C39.0886 5.07885 38.8791 6.61345 38.7589 8.15729C38.6603 9.43304 38.6202 10.7088 38.5586 11.8243Z" fill="white"/>
<path opacity="0.16" d="M12.8925 23.9008C6.33815 23.9069 1.00096 18.5821 0.991711 12.0215C0.982467 5.46096 6.31041 0.102204 12.8802 0.0991224C19.45 0.0960409 24.7903 5.42707 24.7934 12.0184C24.7964 18.6098 19.4623 23.8946 12.8925 23.9008Z" fill="white"/>
<path opacity="0.16" d="M38.1807 12.0292C38.1653 14.439 37.811 16.7871 36.8742 19.0243C36.4397 20.0628 35.8819 21.0304 35.1054 21.8562C34.5445 22.4571 33.8974 22.9378 33.1024 23.1843C32.0454 23.5141 31.0532 23.3292 30.1287 22.7468C29.2628 22.2013 28.6219 21.4371 28.0888 20.5774C27.2383 19.1999 26.7298 17.69 26.397 16.1153C26.0627 14.5069 25.9302 12.8631 26.0026 11.2219C26.095 8.92616 26.5079 6.7013 27.4755 4.60279C27.9131 3.65985 28.4555 2.7847 29.195 2.04821C29.7805 1.45964 30.4492 1.00358 31.2627 0.800199C32.292 0.541352 33.2349 0.769384 34.107 1.33946C34.979 1.90954 35.6539 2.74155 36.1932 3.65368C36.9728 4.97873 37.4535 6.4178 37.7647 7.91542C38.0479 9.26821 38.1874 10.6471 38.1807 12.0292Z" fill="white"/>
<path opacity="0.16" d="M38.4792 11.8907C38.5409 10.7752 38.5809 9.49948 38.6796 8.22373C38.7997 6.67989 39.0093 5.14529 39.4808 3.66308C39.6071 3.26557 39.7889 2.88038 39.9738 2.50751C40.057 2.33495 40.1957 2.18396 40.3375 2.05453C40.5809 1.82958 40.8829 1.82342 41.1079 2.06069C41.3027 2.26443 41.4676 2.49475 41.5978 2.74479C41.9615 3.45046 42.1463 4.22084 42.3066 4.9943C42.5685 6.24539 42.7134 7.5119 42.8089 8.78456C42.9378 10.5473 42.9635 12.316 42.8859 14.0817C42.8243 15.567 42.6918 17.0492 42.4299 18.516C42.2604 19.4528 42.0631 20.3865 41.6595 21.2585C41.5465 21.511 41.4004 21.7473 41.225 21.9611C40.9045 22.3432 40.5532 22.3371 40.2173 21.9704C39.8814 21.6037 39.7489 21.237 39.5979 20.8271C39.2835 19.9705 39.0863 19.0861 38.96 18.1894C38.8213 17.2033 38.7011 16.2141 38.6241 15.2249C38.547 14.1711 38.5316 13.111 38.4792 11.8907Z" fill="white"/>
</svg>
