<svg width="63" height="48" viewBox="0 0 63 48" fill="none" xmlns="http://www.w3.org/2000/svg">
<path opacity="0.16" d="M53.3101 3.97894C49.2964 2.13726 44.9922 0.780394 40.492 0.00325998C40.41 -0.0117385 40.3282 0.0257435 40.2859 0.100709C39.7324 1.08524 39.1192 2.36964 38.6899 3.37918C33.8496 2.65453 29.0341 2.65453 24.293 3.37918C23.8636 2.3472 23.2282 1.08524 22.6721 0.100709C22.6299 0.0282447 22.548 -0.00923725 22.4661 0.00325998C17.9683 0.77791 13.6642 2.13478 9.64796 3.97894C9.61319 3.99393 9.58339 4.01894 9.56361 4.0514C1.39957 16.2483 -0.836898 28.1454 0.26024 39.895C0.265204 39.9525 0.297473 40.0075 0.342153 40.0424C5.72855 43.9981 10.9462 46.3995 16.067 47.9912C16.1489 48.0163 16.2357 47.9863 16.2879 47.9188C17.4992 46.2646 18.579 44.5204 19.5048 42.6862C19.5594 42.5788 19.5073 42.4513 19.3956 42.4088C17.6829 41.7591 16.0521 40.967 14.4833 40.0674C14.3592 39.995 14.3493 39.8175 14.4634 39.7325C14.7936 39.4852 15.1238 39.2278 15.439 38.9679C15.496 38.9204 15.5755 38.9104 15.6425 38.9404C25.9486 43.6458 37.1062 43.6458 47.2907 38.9404C47.3577 38.9079 47.4372 38.9179 47.4967 38.9654C47.812 39.2253 48.1422 39.4852 48.4748 39.7325C48.5889 39.8175 48.5815 39.995 48.4574 40.0674C46.8886 40.9845 45.2578 41.7591 43.5426 42.4063C43.4309 42.4488 43.3812 42.5788 43.4359 42.6862C44.3816 44.5178 45.4613 46.262 46.6503 47.9163C46.7 47.9863 46.7893 48.0163 46.8712 47.9912C52.0168 46.3995 57.2344 43.9981 62.6208 40.0424C62.668 40.0075 62.6978 39.955 62.7028 39.8975C64.0158 26.3137 60.5035 14.5141 53.392 4.05389C53.3746 4.01894 53.3449 3.99393 53.3101 3.97894ZM21.0439 32.7407C17.941 32.7407 15.3844 29.8921 15.3844 26.3937C15.3844 22.8952 17.8914 20.0466 21.0439 20.0466C24.221 20.0466 26.7529 22.9203 26.7033 26.3937C26.7033 29.8921 24.1962 32.7407 21.0439 32.7407ZM41.9688 32.7407C38.8661 32.7407 36.3094 29.8921 36.3094 26.3937C36.3094 22.8952 38.8164 20.0466 41.9688 20.0466C45.1461 20.0466 47.6779 22.9203 47.6283 26.3937C47.6283 29.8921 45.1461 32.7407 41.9688 32.7407Z" fill="white"/>
</svg>
