<svg width="241" height="174" viewBox="0 0 241 174" fill="none" xmlns="http://www.w3.org/2000/svg">
<g filter="url(#filter0_d_406_134)">
<path fill-rule="evenodd" clip-rule="evenodd" d="M68.8661 161.797L68.876 161.802C73.6917 164.148 80.4822 165.4 89.4 165.4C91.5573 165.4 94.2029 165.209 97.352 164.815L97.3617 164.814C99.8531 164.515 101.927 164.183 103.6 163.822V146.105C100.031 146.833 96.4971 147.2 93 147.2C89.0268 147.2 85.6813 146.287 83.5304 143.957L83.5257 143.951C81.5174 141.761 80.8 138.149 80.8 133.8V132.065L82.5172 131.82C97.9807 129.611 109.539 123.416 117.427 113.365L117.431 113.359L117.436 113.353C125.449 103.306 129.6 88.6837 129.6 69.2C129.6 45.5706 124.179 29.1008 113.822 19.2491C103.384 9.32043 88.0211 4.19998 67.4 4.19998C46.779 4.19998 31.4163 9.32043 20.9784 19.2491C10.6215 29.1008 5.20001 45.5706 5.20001 69.2C5.20001 89.0781 9.48203 103.957 17.7488 114.135C26.0165 124.18 38.1614 130.261 54.4383 132.214L56.168 132.422L56.1997 134.164C56.3301 141.338 57.3733 147.211 59.2535 151.849C61.0544 156.291 64.2161 159.595 68.8562 161.793L68.8661 161.797ZM103.6 144.062C104.265 143.921 104.932 143.767 105.6 143.6V165.4C103.6 165.933 100.933 166.4 97.6 166.8C94.4 167.2 91.6667 167.4 89.4 167.4C80.3334 167.4 73.2 166.133 68 163.6C62.9333 161.2 59.4 157.533 57.4 152.6C55.4 147.667 54.3333 141.533 54.2 134.2C37.5333 132.2 24.8667 125.933 16.2 115.4C7.53335 104.733 3.20001 89.3333 3.20001 69.2C3.20001 45.3333 8.66668 28.2 19.6 17.8C30.5333 7.39998 46.4667 2.19998 67.4 2.19998C88.3334 2.19998 104.267 7.39998 115.2 17.8C126.133 28.2 131.6 45.3333 131.6 69.2C131.6 88.9333 127.4 104.067 119 114.6C110.733 125.133 98.6667 131.533 82.8 133.8C82.8 138.067 83.5334 141 85 142.6C86.6 144.333 89.2667 145.2 93 145.2C96.4859 145.2 100.019 144.821 103.6 144.062ZM43.4 38.8C48.4667 32.8 56.4667 29.8 67.4 29.8C78.2 29.8 86.0667 32.8 91 38.8C96.0667 44.6667 98.6 54.8 98.6 69.2C98.6 82.4 96.0667 92.1333 91 98.4C86.0667 104.533 78.2 107.6 67.4 107.6C56.4667 107.6 48.4667 104.533 43.4 98.4C38.4667 92.1333 36 82.4 36 69.2C36 54.8 38.4667 44.6667 43.4 38.8ZM41.8693 37.5128L41.8719 37.5096C47.4509 30.903 56.1192 27.8 67.4 27.8C78.5424 27.8 87.0833 30.901 92.5296 37.5112C98.0744 43.9464 100.6 54.6968 100.6 69.2C100.6 82.5856 98.0437 92.867 92.5577 99.6545C87.1167 106.418 78.5663 109.6 67.4 109.6C56.1056 109.6 47.4328 106.422 41.8581 99.6738L41.8431 99.6556L41.8285 99.6371C36.4873 92.8523 34 82.5789 34 69.2C34 54.6907 36.4616 43.9436 41.8693 37.5128ZM188.654 106.2C191.284 102.678 194.339 99.3442 197.82 96.2C202.087 92.3333 206.887 88.1333 212.22 83.6C219.42 77.3333 224.82 71.4 228.42 65.8C232.02 60.0667 233.82 53.3333 233.82 45.6C233.82 31.8667 229.887 21.2 222.02 13.6C214.154 5.99998 202.687 2.19998 187.62 2.19998C180.687 2.19998 173.687 2.79998 166.62 3.99998C159.687 5.19999 153.62 6.73332 148.42 8.59998V36.4C149.082 36.1427 149.749 35.8917 150.42 35.6471C154.622 34.117 159.022 32.8346 163.62 31.8C168.954 30.4667 174.354 29.8 179.82 29.8C193.954 29.8 201.02 35.2667 201.02 46.2C201.02 50.4667 200.22 54.1333 198.62 57.2C197.154 60.2667 194.62 63.4667 191.02 66.8C187.42 70.1333 182.554 74.6 176.42 80.2C169.754 86.2 163.554 92.1333 157.82 98C152.22 103.867 147.62 110.533 144.02 118V133H235.02V108.2H187.22C187.683 107.527 188.161 106.86 188.654 106.2ZM233.02 110.2H183.418L185.572 107.067C188.6 102.662 192.239 98.5459 196.48 94.7158C200.762 90.835 205.575 86.6241 210.916 82.0836C218.021 75.8988 223.269 70.1115 226.732 64.728C230.101 59.3586 231.82 53.008 231.82 45.6C231.82 32.2621 228.013 22.1703 220.631 15.0384C213.259 7.91644 202.367 4.19998 187.62 4.19998C180.804 4.19998 173.917 4.78972 166.958 5.97119C160.699 7.0547 155.19 8.40744 150.42 10.0209V33.5214C154.491 32.0716 158.738 30.8495 163.158 29.854C168.642 28.485 174.197 27.8 179.82 27.8C187.089 27.8 192.909 29.1962 196.944 32.3181C201.077 35.5153 203.02 40.2682 203.02 46.2C203.02 50.7011 202.178 54.6896 200.41 58.0942C198.795 61.4557 196.078 64.8429 192.379 68.2675C188.774 71.6054 183.904 76.0756 177.769 81.677L177.764 81.6818L177.758 81.6866C171.124 87.6575 164.958 93.5584 159.259 99.3889C153.913 104.992 149.5 111.346 146.02 118.46V131H233.02V110.2Z" fill="url(#paint0_linear_406_134)"/>
</g>
<defs>
<filter id="filter0_d_406_134" x="0.200012" y="0.199982" width="239.82" height="173.2" filterUnits="userSpaceOnUse" color-interpolation-filters="sRGB">
<feFlood flood-opacity="0" result="BackgroundImageFix"/>
<feColorMatrix in="SourceAlpha" type="matrix" values="0 0 0 0 0 0 0 0 0 0 0 0 0 0 0 0 0 0 127 0" result="hardAlpha"/>
<feOffset dx="1" dy="2"/>
<feGaussianBlur stdDeviation="2"/>
<feComposite in2="hardAlpha" operator="out"/>
<feColorMatrix type="matrix" values="0 0 0 0 0 0 0 0 0 0 0 0 0 0 0 0 0 0 0.32 0"/>
<feBlend mode="normal" in2="BackgroundImageFix" result="effect1_dropShadow_406_134"/>
<feBlend mode="normal" in="SourceGraphic" in2="effect1_dropShadow_406_134" result="shape"/>
</filter>
<linearGradient id="paint0_linear_406_134" x1="74.804" y1="-37.9999" x2="346.899" y2="22.6517" gradientUnits="userSpaceOnUse">
<stop stop-color="#FFF4D1"/>
<stop offset="0.179031" stop-color="#F5D28F"/>
<stop offset="1" stop-color="#675537"/>
</linearGradient>
</defs>
</svg>
