<svg width="243" height="174" viewBox="0 0 243 174" fill="none" xmlns="http://www.w3.org/2000/svg">
<g filter="url(#filter0_d_406_135)">
<path fill-rule="evenodd" clip-rule="evenodd" d="M68.8661 161.597L68.876 161.602C73.6917 163.948 80.4822 165.2 89.4 165.2C91.5573 165.2 94.2029 165.009 97.352 164.615L97.3617 164.614C99.8531 164.315 101.927 163.983 103.6 163.622V145.905C100.031 146.633 96.4971 147 93 147C89.0268 147 85.6813 146.087 83.5304 143.757L83.5257 143.751C81.5174 141.561 80.8 137.949 80.8 133.6V131.865L82.5172 131.62C97.9807 129.411 109.539 123.216 117.427 113.165L117.431 113.159L117.436 113.153C125.449 103.106 129.6 88.4838 129.6 69C129.6 45.3706 124.179 28.9008 113.822 19.0491C103.384 9.12045 88.0211 4 67.4 4C46.779 4 31.4163 9.12045 20.9784 19.0491C10.6215 28.9008 5.20001 45.3706 5.20001 69C5.20001 88.8781 9.48203 103.757 17.7488 113.935C26.0165 123.98 38.1614 130.061 54.4383 132.014L56.168 132.222L56.1997 133.964C56.3301 141.138 57.3733 147.011 59.2535 151.649C61.0544 156.091 64.2161 159.395 68.8562 161.593L68.8661 161.597ZM103.6 143.862C104.265 143.721 104.932 143.567 105.6 143.4V165.2C103.6 165.733 100.933 166.2 97.6 166.6C94.4 167 91.6667 167.2 89.4 167.2C80.3334 167.2 73.2 165.933 68 163.4C62.9333 161 59.4 157.333 57.4 152.4C55.4 147.467 54.3333 141.333 54.2 134C37.5333 132 24.8667 125.733 16.2 115.2C7.53335 104.533 3.20001 89.1333 3.20001 69C3.20001 45.1333 8.66668 28 19.6 17.6C30.5333 7.2 46.4667 2 67.4 2C88.3334 2 104.267 7.2 115.2 17.6C126.133 28 131.6 45.1333 131.6 69C131.6 88.7333 127.4 103.867 119 114.4C110.733 124.933 98.6667 131.333 82.8 133.6C82.8 137.867 83.5334 140.8 85 142.4C86.6 144.133 89.2667 145 93 145C96.4859 145 100.019 144.621 103.6 143.862ZM43.4 38.6C48.4667 32.6 56.4667 29.6 67.4 29.6C78.2 29.6 86.0667 32.6 91 38.6C96.0667 44.4667 98.6 54.6 98.6 69C98.6 82.2 96.0667 91.9333 91 98.2C86.0667 104.333 78.2 107.4 67.4 107.4C56.4667 107.4 48.4667 104.333 43.4 98.2C38.4667 91.9333 36 82.2 36 69C36 54.6 38.4667 44.4667 43.4 38.6ZM41.8693 37.3128L41.8719 37.3096C47.4509 30.703 56.1192 27.6 67.4 27.6C78.5424 27.6 87.0833 30.701 92.5296 37.3112C98.0744 43.7465 100.6 54.4968 100.6 69C100.6 82.3856 98.0437 92.6671 92.5577 99.4545C87.1167 106.218 78.5663 109.4 67.4 109.4C56.1056 109.4 47.4328 106.222 41.8581 99.4738L41.8431 99.4556L41.8285 99.4371C36.4873 92.6523 34 82.3789 34 69C34 54.4907 36.4616 43.7436 41.8693 37.3128ZM221.82 12.4C213.287 5.46667 200.887 2 184.62 2C177.554 2 170.487 2.66667 163.42 4C156.487 5.33334 150.687 6.93334 146.02 8.80001V35.2C146.669 34.8962 147.335 34.6015 148.02 34.3162C151.845 32.7231 156.245 31.4177 161.22 30.4C167.087 29.0667 172.887 28.4 178.62 28.4C186.754 28.4 192.62 29.6 196.22 32C199.954 34.4 201.82 37.9333 201.82 42.6C201.82 47.5333 200.287 51.1333 197.22 53.4C194.154 55.5333 189.22 56.6 182.42 56.6H165.02L162.82 79.2H183.82C190.487 79.2 195.554 80.2667 199.02 82.4C202.62 84.5333 204.42 87.9333 204.42 92.6C204.42 98.6 202.287 102.733 198.02 105C193.887 107.267 187.62 108.4 179.22 108.4C173.754 108.4 167.887 107.867 161.62 106.8C156.111 105.862 150.911 104.358 146.02 102.287C145.348 102.002 144.681 101.706 144.02 101.4V128.2C147.22 129.533 151.22 130.733 156.02 131.8C160.954 132.733 165.954 133.467 171.02 134C176.087 134.533 180.487 134.8 184.22 134.8C194.62 134.8 203.754 133.4 211.62 130.6C219.62 127.8 225.887 123.533 230.42 117.8C234.954 111.933 237.22 104.533 237.22 95.6C237.22 88.8 235.687 83 232.62 78.2C230.091 74.0614 226.373 70.914 221.464 68.7578C220.68 68.4132 219.865 68.094 219.02 67.8C219.813 67.4034 220.576 66.9774 221.307 66.5218C225.493 63.9141 228.664 60.3402 230.82 55.8C233.487 50.4667 234.82 44.7333 234.82 38.6C234.82 27.9333 230.487 19.2 221.82 12.4ZM228.845 116.568C233.051 111.12 235.22 104.179 235.22 95.6C235.22 89.1067 233.759 83.6975 230.935 79.2768L230.924 79.26L230.914 79.2429C228.258 74.8977 224.13 71.695 218.363 69.689L213.885 68.1314L218.126 66.0112C223.064 63.5421 226.674 59.8675 229.014 54.9419L229.022 54.9236L229.031 54.9056C231.555 49.8581 232.82 44.432 232.82 38.6C232.82 28.5706 228.788 20.4088 220.586 13.9735L220.572 13.963L220.559 13.9522C212.518 7.41897 200.64 4 184.62 4C177.681 4 170.74 4.65446 163.794 5.96474C157.564 7.16309 152.313 8.56955 148.02 10.1713V32.1563C151.796 30.6492 156.059 29.4154 160.798 28.4449C166.796 27.0834 172.738 26.4 178.62 26.4C186.843 26.4 193.205 27.5934 197.315 30.3264C201.647 33.1166 203.82 37.3005 203.82 42.6C203.82 47.963 202.131 52.2575 198.409 55.0084L198.386 55.0254L198.362 55.0418C194.782 57.5323 189.338 58.6 182.42 58.6H166.835L165.024 77.2H183.82C190.637 77.2 196.132 78.2796 200.055 80.6881C204.332 83.2294 206.42 87.3307 206.42 92.6C206.42 99.1226 204.051 104.056 198.97 106.76C194.394 109.266 187.724 110.4 179.22 110.4C173.625 110.4 167.645 109.854 161.285 108.772C155.921 107.859 150.831 106.42 146.02 104.453V126.844C148.86 127.926 152.322 128.928 156.424 129.841C161.292 130.761 166.227 131.484 171.23 132.011C176.25 132.539 180.577 132.8 184.22 132.8C194.446 132.8 203.344 131.423 210.95 128.716L210.96 128.712C218.656 126.019 224.583 121.955 228.845 116.568Z" fill="url(#paint0_linear_406_135)"/>
</g>
<defs>
<filter id="filter0_d_406_135" x="0.200012" y="0" width="242.02" height="173.2" filterUnits="userSpaceOnUse" color-interpolation-filters="sRGB">
<feFlood flood-opacity="0" result="BackgroundImageFix"/>
<feColorMatrix in="SourceAlpha" type="matrix" values="0 0 0 0 0 0 0 0 0 0 0 0 0 0 0 0 0 0 127 0" result="hardAlpha"/>
<feOffset dx="1" dy="2"/>
<feGaussianBlur stdDeviation="2"/>
<feComposite in2="hardAlpha" operator="out"/>
<feColorMatrix type="matrix" values="0 0 0 0 0 0 0 0 0 0 0 0 0 0 0 0 0 0 0.32 0"/>
<feBlend mode="normal" in2="BackgroundImageFix" result="effect1_dropShadow_406_135"/>
<feBlend mode="normal" in="SourceGraphic" in2="effect1_dropShadow_406_135" result="shape"/>
</filter>
<linearGradient id="paint0_linear_406_135" x1="75.4392" y1="-38.2" x2="349.543" y2="23.3982" gradientUnits="userSpaceOnUse">
<stop stop-color="#FFF4D1"/>
<stop offset="0.179031" stop-color="#F5D28F"/>
<stop offset="1" stop-color="#675537"/>
</linearGradient>
</defs>
</svg>
