<svg width="250" height="174" viewBox="0 0 250 174" fill="none" xmlns="http://www.w3.org/2000/svg">
<g filter="url(#filter0_d_406_136)">
<path fill-rule="evenodd" clip-rule="evenodd" d="M68.8661 161.597L68.876 161.602C73.6917 163.948 80.4822 165.2 89.4 165.2C91.5573 165.2 94.2029 165.009 97.352 164.615L97.3617 164.614C99.8531 164.315 101.927 163.983 103.6 163.622V145.905C100.031 146.633 96.4971 147 93 147C89.0268 147 85.6813 146.087 83.5304 143.757L83.5257 143.751C81.5174 141.561 80.8 137.949 80.8 133.6V131.865L82.5172 131.62C97.9807 129.411 109.539 123.216 117.427 113.165L117.431 113.159L117.436 113.153C125.449 103.106 129.6 88.4838 129.6 69C129.6 45.3706 124.179 28.9008 113.822 19.0491C103.384 9.12045 88.0211 4 67.4 4C46.779 4 31.4163 9.12045 20.9784 19.0491C10.6215 28.9008 5.20001 45.3706 5.20001 69C5.20001 88.8781 9.48203 103.757 17.7488 113.935C26.0165 123.98 38.1614 130.061 54.4383 132.014L56.168 132.222L56.1997 133.964C56.3301 141.138 57.3733 147.011 59.2535 151.649C61.0544 156.091 64.2161 159.395 68.8562 161.593L68.8661 161.597ZM103.6 143.862C104.265 143.721 104.932 143.567 105.6 143.4V165.2C103.6 165.733 100.933 166.2 97.6 166.6C94.4 167 91.6667 167.2 89.4 167.2C80.3334 167.2 73.2 165.933 68 163.4C62.9333 161 59.4 157.333 57.4 152.4C55.4 147.467 54.3333 141.333 54.2 134C37.5333 132 24.8667 125.733 16.2 115.2C7.53335 104.533 3.20001 89.1333 3.20001 69C3.20001 45.1333 8.66668 28 19.6 17.6C30.5333 7.2 46.4667 2 67.4 2C88.3334 2 104.267 7.2 115.2 17.6C126.133 28 131.6 45.1333 131.6 69C131.6 88.7333 127.4 103.867 119 114.4C110.733 124.933 98.6667 131.333 82.8 133.6C82.8 137.867 83.5334 140.8 85 142.4C86.6 144.133 89.2667 145 93 145C96.4859 145 100.019 144.621 103.6 143.862ZM43.4 38.6C48.4667 32.6 56.4667 29.6 67.4 29.6C78.2 29.6 86.0667 32.6 91 38.6C96.0667 44.4667 98.6 54.6 98.6 69C98.6 82.2 96.0667 91.9333 91 98.2C86.0667 104.333 78.2 107.4 67.4 107.4C56.4667 107.4 48.4667 104.333 43.4 98.2C38.4667 91.9333 36 82.2 36 69C36 54.6 38.4667 44.4667 43.4 38.6ZM41.8693 37.3128L41.8719 37.3096C47.4509 30.703 56.1192 27.6 67.4 27.6C78.5424 27.6 87.0833 30.701 92.5296 37.3112C98.0744 43.7465 100.6 54.4968 100.6 69C100.6 82.3856 98.0437 92.6671 92.5577 99.4545C87.1167 106.218 78.5663 109.4 67.4 109.4C56.1056 109.4 47.4328 106.222 41.8581 99.4738L41.8431 99.4556L41.8285 99.4371C36.4873 92.6523 34 82.3789 34 69C34 54.4907 36.4616 43.7436 41.8693 37.3128ZM232.82 107.2H244.82V81.2H232.82V4H204.62L140.02 85.8V107.2H200.62V132.8H232.82V107.2ZM230.82 130.8V105.2H242.82V83.2H230.82V6H205.589L142.02 86.4945V105.2H202.62V130.8H230.82ZM166.814 84.4L208.02 33.7747V84.4H166.814ZM206.02 82.4H171.02L206.02 39.4V82.4Z" fill="url(#paint0_linear_406_136)"/>
</g>
<defs>
<filter id="filter0_d_406_136" x="0.200012" y="0" width="249.62" height="173.2" filterUnits="userSpaceOnUse" color-interpolation-filters="sRGB">
<feFlood flood-opacity="0" result="BackgroundImageFix"/>
<feColorMatrix in="SourceAlpha" type="matrix" values="0 0 0 0 0 0 0 0 0 0 0 0 0 0 0 0 0 0 127 0" result="hardAlpha"/>
<feOffset dx="1" dy="2"/>
<feGaussianBlur stdDeviation="2"/>
<feComposite in2="hardAlpha" operator="out"/>
<feColorMatrix type="matrix" values="0 0 0 0 0 0 0 0 0 0 0 0 0 0 0 0 0 0 0.32 0"/>
<feBlend mode="normal" in2="BackgroundImageFix" result="effect1_dropShadow_406_136"/>
<feBlend mode="normal" in="SourceGraphic" in2="effect1_dropShadow_406_136" result="shape"/>
</filter>
<linearGradient id="paint0_linear_406_136" x1="76.7095" y1="-38.2" x2="354.816" y2="25.3097" gradientUnits="userSpaceOnUse">
<stop stop-color="#FFF4D1"/>
<stop offset="0.179031" stop-color="#F5D28F"/>
<stop offset="1" stop-color="#675537"/>
</linearGradient>
</defs>
</svg>
