<svg width="60" height="48" viewBox="0 0 60 48" fill="none" xmlns="http://www.w3.org/2000/svg">
<path d="M53.0499 11.9453C53.0739 12.4734 53.0739 12.9775 53.0739 13.5056C53.0739 29.5165 40.8796 48 18.5795 48C11.9929 47.996 5.54537 46.1051 0 42.551C0.95576 42.6667 1.9178 42.7229 2.88054 42.719C8.33868 42.7377 13.6428 40.9105 17.9313 37.534C15.4026 37.4877 12.9519 36.6499 10.924 35.1386C8.89596 33.6273 7.3926 31.5184 6.62524 29.1085C8.44109 29.4691 10.3165 29.395 12.0983 28.8924C9.35326 28.3425 6.88393 26.8577 5.11115 24.6909C3.33838 22.5242 2.3719 19.8097 2.37644 17.0102V16.8662C4.05854 17.8098 5.94541 18.3289 7.87347 18.3785C5.30337 16.6685 3.48243 14.0425 2.78211 11.036C2.08179 8.02951 2.55484 4.86911 4.10477 2.19945C7.15048 5.94381 10.9486 9.00682 15.2532 11.1901C19.5579 13.3735 24.273 14.6284 29.0934 14.8738C28.4946 12.275 28.7677 9.55126 29.8706 7.12306C30.9736 4.69486 32.845 2.69716 35.1962 1.4383C37.5473 0.179435 40.2475 -0.270612 42.8798 0.157619C45.5122 0.585849 47.9304 1.86855 49.7613 3.80775C52.4687 3.2719 55.0658 2.28174 57.4427 0.879199C56.5498 3.69063 54.6527 6.07475 52.1137 7.57645C54.5177 7.29102 56.8647 6.64358 59.075 5.65609C57.4566 8.09409 55.4163 10.2238 53.0499 11.9453Z" fill="white" fill-opacity="0.16"/>
</svg>
